<svg xmlns="http://www.w3.org/2000/svg" width="299.809" height="259.903" viewBox="0 0 299.809 259.903">
  <g id="Group_62" data-name="Group 62" transform="translate(-85.403 -252.436)">
    <path id="Path_119" data-name="Path 119" d="M88.714,254.632a1.947,1.947,0,0,1,2.144-2.2h2.4a1.947,1.947,0,0,1,2.144,2.2v12.914h4.862l7.843-13.594a2.65,2.65,0,0,1,2.562-1.516h2.562c1.725,0,2.353,1.15,1.516,2.614l-8.993,15.058v.105l9.673,16.731c.889,1.516.209,2.614-1.516,2.614H111.04a2.652,2.652,0,0,1-2.562-1.516l-8.209-14.692H95.407v14.012a1.925,1.925,0,0,1-2.144,2.2h-2.4a1.925,1.925,0,0,1-2.144-2.2Z" fill="#fff"/>
    <path id="Path_120" data-name="Path 120" d="M131.691,262.265c7.581,0,11.816,5.386,11.816,12.7a2.31,2.31,0,0,1-2.3,2.249H124.946a7.663,7.663,0,0,0,8,7.319,11.026,11.026,0,0,0,5.751-1.725c1.307-.627,2.248-.471,2.928.732l.627,1.046a1.986,1.986,0,0,1-.731,2.928,16.858,16.858,0,0,1-9.046,2.666c-8.836,0-14.326-6.379-14.326-13.96C118.149,268.017,123.691,262.265,131.691,262.265Zm5.228,10.928c-.1-3.713-2.352-5.909-5.385-5.909-3.4,0-5.8,2.353-6.431,5.909Z" fill="#fff"/>
    <path id="Path_121" data-name="Path 121" d="M160.237,262.265c7.581,0,11.817,5.386,11.817,12.7a2.311,2.311,0,0,1-2.3,2.249h-16.26a7.662,7.662,0,0,0,8,7.319,11.022,11.022,0,0,0,5.751-1.725c1.308-.627,2.249-.471,2.928.732l.627,1.046a1.986,1.986,0,0,1-.731,2.928,16.858,16.858,0,0,1-9.046,2.666c-8.836,0-14.326-6.379-14.326-13.96C146.7,268.017,152.237,262.265,160.237,262.265Zm5.228,10.928c-.1-3.713-2.352-5.909-5.385-5.909-3.4,0-5.8,2.353-6.431,5.909Z" fill="#fff"/>
    <path id="Path_122" data-name="Path 122" d="M176.863,265.088a1.985,1.985,0,0,1,2.195-2.2h1.673c1.412,0,2.144.785,2.144,1.83v1.2c0,.575-.052,1.046-.052,1.046h.1a9.57,9.57,0,0,1,8.574-4.706c7.215,0,11.869,5.7,11.869,13.96,0,8.47-5.229,13.96-12.235,13.96a8.669,8.669,0,0,1-7.686-4.078h-.1a15.546,15.546,0,0,1,.156,2.3v9.411a1.94,1.94,0,0,1-2.195,2.2h-2.249a1.962,1.962,0,0,1-2.195-2.2Zm13.071,19.5c3.66,0,6.692-2.981,6.692-8.261,0-5.072-2.719-8.366-6.588-8.366-3.45,0-6.745,2.51-6.745,8.418C183.293,280.513,185.594,284.591,189.934,284.591Z" fill="#fff"/>
    <path id="Path_123" data-name="Path 123" d="M208.389,256.2v-1.568a1.947,1.947,0,0,1,2.144-2.2h2.3a1.984,1.984,0,0,1,2.2,2.2V256.2a1.947,1.947,0,0,1-2.2,2.144h-2.3A1.909,1.909,0,0,1,208.389,256.2Zm0,8.888a1.947,1.947,0,0,1,2.144-2.2h2.3a1.947,1.947,0,0,1,2.144,2.2v22.274a1.925,1.925,0,0,1-2.144,2.2h-2.3a1.925,1.925,0,0,1-2.144-2.2Z" fill="#fff"/>
    <path id="Path_124" data-name="Path 124" d="M221.565,265.088a1.946,1.946,0,0,1,2.143-2.2h2.039a1.947,1.947,0,0,1,2.144,2.2v1.621a8.5,8.5,0,0,1-.105,1.2h.105a10.4,10.4,0,0,1,9.463-5.647c5.908,0,9.307,3.085,9.307,10.144v14.953a1.941,1.941,0,0,1-2.2,2.2h-2.248a1.962,1.962,0,0,1-2.2-2.2V273.768c0-3.242-.837-5.438-4.183-5.438-4.705,0-7.686,3.921-7.686,8.732v10.3a1.925,1.925,0,0,1-2.143,2.2h-2.3a1.925,1.925,0,0,1-2.143-2.2Z" fill="#fff"/>
    <path id="Path_125" data-name="Path 125" d="M257.849,293.9a14.474,14.474,0,0,0,5.386.994c4.078,0,7.528-1.726,7.528-6.483v-1.987a11.319,11.319,0,0,1,.105-1.36h-.105a7.8,7.8,0,0,1-7.319,3.974c-7.791,0-12.078-6.17-12.078-13.542,0-7.267,4.078-13.228,12.025-13.228,6.222,0,7.9,4.078,7.9,4.078h.1a3.831,3.831,0,0,1-.052-.679v-.994c0-.993.732-1.778,2.143-1.778h1.778a1.947,1.947,0,0,1,2.144,2.2v22.849c0,9.15-7.216,12.6-13.8,12.6a21.394,21.394,0,0,1-7.79-1.411,1.875,1.875,0,0,1-1.15-2.823l.418-1.2A1.917,1.917,0,0,1,257.849,293.9ZM270.92,275.65c0-6.117-3.032-7.738-6.483-7.738-4.131,0-6.379,2.928-6.379,7.32,0,4.81,2.406,8.209,6.693,8.209C267.888,283.441,270.92,281.61,270.92,275.65Z" fill="#fff"/>
    <path id="Path_126" data-name="Path 126" d="M87.355,323.846a1.984,1.984,0,0,1,2.2-2.2H91.8a1.962,1.962,0,0,1,2.2,2.2V337.44c0,3.242.837,5.437,4.13,5.437,4.811,0,7.477-4.235,7.477-8.993V323.846a1.962,1.962,0,0,1,2.2-2.2h2.249a1.984,1.984,0,0,1,2.195,2.2v22.273a1.962,1.962,0,0,1-2.195,2.2h-2.04a1.925,1.925,0,0,1-2.143-2.2V344.55a7.637,7.637,0,0,1,.1-1.2h-.1a10.348,10.348,0,0,1-9.255,5.594c-5.7,0-9.254-2.875-9.254-10.143Z" fill="#fff"/>
    <path id="Path_127" data-name="Path 127" d="M118.777,323.846a1.984,1.984,0,0,1,2.2-2.2h1.673c1.411,0,2.144.784,2.144,1.83v1.2a10.44,10.44,0,0,1-.053,1.045h.105a9.573,9.573,0,0,1,8.575-4.7c7.215,0,11.868,5.7,11.868,13.959,0,8.471-5.228,13.96-12.234,13.96a8.667,8.667,0,0,1-7.686-4.078h-.1a15.466,15.466,0,0,1,.157,2.3v9.411a1.941,1.941,0,0,1-2.2,2.2h-2.248a1.962,1.962,0,0,1-2.2-2.2Zm13.071,19.5c3.66,0,6.693-2.98,6.693-8.261,0-5.071-2.719-8.366-6.588-8.366-3.451,0-6.745,2.51-6.745,8.418C125.208,339.27,127.508,343.348,131.848,343.348Z" fill="#fff"/>
    <path id="Path_128" data-name="Path 128" d="M161.91,313.6a1.736,1.736,0,0,1,1.882-2.4h2.615a2.225,2.225,0,0,1,2.353,1.935l5.385,23.737a26.968,26.968,0,0,1,.575,3.921h.1a30.774,30.774,0,0,1,.784-3.921l6.17-23.79a2.329,2.329,0,0,1,2.457-1.882h1.778a2.158,2.158,0,0,1,2.352,1.882l6.118,23.79a30.773,30.773,0,0,1,.784,3.921h.1a32.766,32.766,0,0,1,.628-3.921l5.7-23.737a2.18,2.18,0,0,1,2.4-1.935h2.458c1.568,0,2.3.941,1.934,2.4l-8.523,32.887a2.288,2.288,0,0,1-2.457,1.83H193.8a2.243,2.243,0,0,1-2.4-1.882l-5.281-20.077c-.627-2.4-.993-4.863-.993-4.863h-.157s-.366,2.458-.942,4.863l-5.333,20.077a2.241,2.241,0,0,1-2.4,1.882h-3.765a2.243,2.243,0,0,1-2.4-1.882Z" fill="#fff"/>
    <path id="Path_129" data-name="Path 129" d="M213.2,314.958v-1.569a1.947,1.947,0,0,1,2.144-2.2h2.3a1.984,1.984,0,0,1,2.195,2.2v1.569a1.946,1.946,0,0,1-2.195,2.143h-2.3A1.909,1.909,0,0,1,213.2,314.958Zm0,8.888a1.947,1.947,0,0,1,2.144-2.2h2.3a1.946,1.946,0,0,1,2.143,2.2v22.273a1.925,1.925,0,0,1-2.143,2.2h-2.3a1.925,1.925,0,0,1-2.144-2.2Z" fill="#fff"/>
    <path id="Path_130" data-name="Path 130" d="M227.84,327.3h-1.412a1.925,1.925,0,0,1-2.144-2.2v-.889a1.962,1.962,0,0,1,2.2-2.2H228v-5.438a1.986,1.986,0,0,1,2.2-2.2h2.091a1.985,1.985,0,0,1,2.2,2.2v5.438h3.869a1.984,1.984,0,0,1,2.2,2.2v.889a1.947,1.947,0,0,1-2.144,2.2H234.48v10.352c0,3.974,2.457,4.758,4.287,4.967,1.621.157,2.2.68,2.2,2.144v1.62c0,1.569-.889,2.2-2.718,2.2-4.759,0-10.4-2.562-10.4-9.778Z" fill="#fff"/>
    <path id="Path_131" data-name="Path 131" d="M245.407,313.389a1.984,1.984,0,0,1,2.2-2.2h2.248a1.962,1.962,0,0,1,2.2,2.2v10.77a15.12,15.12,0,0,1-.157,2.249h.1a10.5,10.5,0,0,1,9.254-5.385c5.908,0,9.307,3.084,9.307,10.143v14.953a1.962,1.962,0,0,1-2.2,2.2h-2.248a1.942,1.942,0,0,1-2.2-2.2V332.525c0-3.241-.836-5.438-4.182-5.438-4.654,0-7.686,3.765-7.686,8.837v10.195a1.941,1.941,0,0,1-2.2,2.2H247.6a1.962,1.962,0,0,1-2.2-2.2Z" fill="#fff"/>
    <path id="Path_132" data-name="Path 132" d="M291.259,327.3h-1.412a1.925,1.925,0,0,1-2.143-2.2v-.889a1.962,1.962,0,0,1,2.2-2.2h1.516v-5.438a1.985,1.985,0,0,1,2.2-2.2H295.7a1.985,1.985,0,0,1,2.195,2.2v5.438h3.869a1.984,1.984,0,0,1,2.2,2.2v.889a1.946,1.946,0,0,1-2.143,2.2H297.9v10.352c0,3.974,2.458,4.758,4.288,4.967,1.621.157,2.2.68,2.2,2.144v1.62c0,1.569-.889,2.2-2.719,2.2-4.758,0-10.4-2.562-10.4-9.778Z" fill="#fff"/>
    <path id="Path_133" data-name="Path 133" d="M308.826,313.389a1.985,1.985,0,0,1,2.2-2.2h2.249a1.961,1.961,0,0,1,2.2,2.2v10.77a15.118,15.118,0,0,1-.157,2.249h.105a10.5,10.5,0,0,1,9.255-5.385c5.908,0,9.306,3.084,9.306,10.143v14.953a1.962,1.962,0,0,1-2.2,2.2h-2.248a1.941,1.941,0,0,1-2.2-2.2V332.525c0-3.241-.836-5.438-4.183-5.438-4.653,0-7.686,3.765-7.686,8.837v10.195a1.94,1.94,0,0,1-2.2,2.2h-2.249a1.963,1.963,0,0,1-2.2-2.2Z" fill="#fff"/>
    <path id="Path_134" data-name="Path 134" d="M352.065,321.023c7.581,0,11.816,5.385,11.816,12.7a2.31,2.31,0,0,1-2.3,2.248H345.32a7.664,7.664,0,0,0,8,7.32,11.026,11.026,0,0,0,5.751-1.725c1.307-.628,2.248-.471,2.928.731l.627,1.046a1.986,1.986,0,0,1-.731,2.928,16.858,16.858,0,0,1-9.046,2.666c-8.836,0-14.326-6.378-14.326-13.96C338.523,326.774,344.065,321.023,352.065,321.023Zm5.228,10.927c-.1-3.712-2.352-5.908-5.385-5.908-3.4,0-5.8,2.353-6.431,5.908Z" fill="#fff"/>
    <path id="Path_135" data-name="Path 135" d="M88.714,376.129a1.947,1.947,0,0,1,2.144-2.2h2.823A2.639,2.639,0,0,1,96.3,375.4l13.175,19.972a62.7,62.7,0,0,1,3.085,5.752h.105s-.366-3.556-.366-5.752V376.129a1.985,1.985,0,0,1,2.2-2.2h2.352a1.986,1.986,0,0,1,2.2,2.2V408.86a1.963,1.963,0,0,1-2.2,2.2H114.02a2.656,2.656,0,0,1-2.562-1.465L98.23,389.671c-1.359-2.2-3.084-5.751-3.084-5.751h-.105s.366,3.555.366,5.751V408.86a1.926,1.926,0,0,1-2.144,2.2h-2.4a1.926,1.926,0,0,1-2.144-2.2Z" fill="#fff"/>
    <path id="Path_136" data-name="Path 136" d="M138.018,383.763c7.581,0,11.817,5.385,11.817,12.7a2.311,2.311,0,0,1-2.3,2.248h-16.26a7.663,7.663,0,0,0,8,7.32,11.026,11.026,0,0,0,5.751-1.725c1.308-.627,2.249-.471,2.928.732l.627,1.045a1.987,1.987,0,0,1-.731,2.929,16.858,16.858,0,0,1-9.046,2.666c-8.836,0-14.326-6.379-14.326-13.96C124.476,389.514,130.018,383.763,138.018,383.763Zm5.228,10.927c-.1-3.712-2.352-5.908-5.385-5.908-3.4,0-5.8,2.353-6.431,5.908Z" fill="#fff"/>
    <path id="Path_137" data-name="Path 137" d="M152.5,386.848a1.745,1.745,0,0,1,1.83-2.458h2.509a2.161,2.161,0,0,1,2.353,1.935l4.288,15.581c.313,1.411.522,2.823.522,2.823h.1s.209-1.412.575-2.823l4.5-15.581a2.211,2.211,0,0,1,2.406-1.882h1.986a2.243,2.243,0,0,1,2.406,1.882l4.444,15.581a18.5,18.5,0,0,1,.575,2.823h.105s.209-1.412.574-2.823l4.235-15.581a2.244,2.244,0,0,1,2.406-1.935h2.4a1.731,1.731,0,0,1,1.83,2.458L185.7,409.226a2.326,2.326,0,0,1-2.458,1.83h-3.5a2.3,2.3,0,0,1-2.458-1.883l-4.025-13.332a23,23,0,0,1-.628-2.876h-.1s-.261,1.464-.68,2.876l-4.026,13.332a2.243,2.243,0,0,1-2.4,1.883h-3.608a2.269,2.269,0,0,1-2.4-1.83Z" fill="#fff"/>
    <path id="Path_138" data-name="Path 138" d="M211.057,376.129a1.947,1.947,0,0,1,2.143-2.2h2.824a2.637,2.637,0,0,1,2.614,1.465l13.176,19.972a62.7,62.7,0,0,1,3.085,5.752h.1s-.366-3.556-.366-5.752V376.129a1.985,1.985,0,0,1,2.2-2.2h2.353a1.985,1.985,0,0,1,2.2,2.2V408.86a1.963,1.963,0,0,1-2.2,2.2h-2.823a2.656,2.656,0,0,1-2.562-1.465l-13.228-19.92c-1.36-2.2-3.085-5.751-3.085-5.751h-.105s.366,3.555.366,5.751V408.86a1.925,1.925,0,0,1-2.143,2.2H213.2a1.925,1.925,0,0,1-2.143-2.2Z" fill="#fff"/>
    <path id="Path_139" data-name="Path 139" d="M261.407,383.763c8.1,0,14.692,5.8,14.692,13.96,0,8.208-6.589,13.96-14.692,13.96s-14.64-5.752-14.64-13.96C246.767,389.567,253.3,383.763,261.407,383.763Zm0,22.273a8.321,8.321,0,0,0,0-16.626c-4.34,0-7.9,3.4-7.9,8.313C253.511,402.69,257.067,406.036,261.407,406.036Z" fill="#fff"/>
    <path id="Path_140" data-name="Path 140" d="M280.96,386.586a1.947,1.947,0,0,1,2.144-2.2h2.039a1.985,1.985,0,0,1,2.2,2.2v2.51a11.109,11.109,0,0,1-.157,1.83h.1c1.046-3.189,3.974-6.745,7.739-6.745,1.464,0,1.986.732,1.986,2.2v2.039a2.023,2.023,0,0,1-2.248,2.2c-4.862,0-7.215,4.81-7.215,9.673v8.575a1.926,1.926,0,0,1-2.144,2.2h-2.3a1.926,1.926,0,0,1-2.144-2.2Z" fill="#fff"/>
    <path id="Path_141" data-name="Path 141" d="M300.567,386.586a1.946,1.946,0,0,1,2.143-2.2h2.039a1.947,1.947,0,0,1,2.144,2.2v1.621a8.5,8.5,0,0,1-.105,1.2h.105a10.255,10.255,0,0,1,8.732-5.647c4.025,0,6.692,1.882,7.79,5.49h.1a10.566,10.566,0,0,1,9.1-5.49c5.542,0,8.732,3.137,8.732,10.143V408.86a1.963,1.963,0,0,1-2.2,2.2H336.9a1.941,1.941,0,0,1-2.2-2.2v-13.7c0-3.032-.575-5.333-3.66-5.333-4.5,0-6.8,4.6-6.8,9.254v9.778a1.925,1.925,0,0,1-2.143,2.2h-2.3a1.963,1.963,0,0,1-2.2-2.2v-13.7c0-2.875-.418-5.333-3.555-5.333-4.706,0-6.9,4.81-6.9,9.254v9.778a1.925,1.925,0,0,1-2.143,2.2h-2.3a1.925,1.925,0,0,1-2.143-2.2Z" fill="#fff"/>
    <path id="Path_142" data-name="Path 142" d="M361.058,394.586h1.1v-.627c0-3.5-2.248-4.706-4.967-4.706a12.04,12.04,0,0,0-5.542,1.516c-1.307.575-2.3.366-2.928-.889l-.523-.993a1.949,1.949,0,0,1,.837-2.928,18.921,18.921,0,0,1,8.731-2.2c6.9,0,11.032,3.869,11.032,10.614V408.86a1.941,1.941,0,0,1-2.2,2.2h-1.778a1.925,1.925,0,0,1-2.143-2.2v-1.046a5.249,5.249,0,0,1,.1-1.15h-.1a9.711,9.711,0,0,1-8.366,5.019c-4.862,0-8.836-3.137-8.836-8C345.477,395.893,355.1,394.586,361.058,394.586Zm-4.967,12.025c3.712,0,6.117-3.764,6.117-7.006v-.993h-1.1c-3.346,0-9.045.523-9.045,4.5C352.065,404.886,353.424,406.611,356.091,406.611Z" fill="#fff"/>
    <path id="Path_143" data-name="Path 143" d="M374.912,376.129a1.947,1.947,0,0,1,2.144-2.2h2.3a1.947,1.947,0,0,1,2.143,2.2v26.09c0,2.615,1.1,3.085,2.091,3.19a1.7,1.7,0,0,1,1.621,1.882v1.778a1.976,1.976,0,0,1-2.2,2.248c-3.556,0-8.105-.941-8.105-8.575Z" fill="#fff"/>
    <path id="Path_144" data-name="Path 144" d="M94.368,435.61a9.7,9.7,0,0,1,5.68,1.739.951.951,0,0,1,.195,1.42l-.44.71c-.343.563-.808.612-1.4.245A7.233,7.233,0,0,0,94.49,438.5c-3.795,0-5.827,2.766-5.827,5.974,0,3.256,2.1,6.218,5.851,6.218a7.282,7.282,0,0,0,4.26-1.517.887.887,0,0,1,1.42.171l.49.661a.951.951,0,0,1-.147,1.42,9.74,9.74,0,0,1-6.145,2.154,8.986,8.986,0,0,1-.024-17.971Z" fill="#fff"/>
    <path id="Path_145" data-name="Path 145" d="M103.083,436.933a.911.911,0,0,1,1-1.028h1.078a.911.911,0,0,1,1,1.028V449.15c0,1.224.515,1.445.98,1.494a.8.8,0,0,1,.759.881v.832a.926.926,0,0,1-1.029,1.053c-1.664,0-3.794-.441-3.794-4.015Z" fill="#fff"/>
    <path id="Path_146" data-name="Path 146" d="M109.937,437.667v-.734a.912.912,0,0,1,1-1.028h1.077a.93.93,0,0,1,1.029,1.028v.734a.912.912,0,0,1-1.029,1h-1.077A.894.894,0,0,1,109.937,437.667Zm0,4.162a.912.912,0,0,1,1-1.028h1.077a.912.912,0,0,1,1,1.028v10.43a.9.9,0,0,1-1,1.029h-1.077a.9.9,0,0,1-1-1.029Z" fill="#fff"/>
    <path id="Path_147" data-name="Path 147" d="M116.107,441.829a.911.911,0,0,1,1-1.028h.955a.911.911,0,0,1,1,1.028v.759a4,4,0,0,1-.049.564h.049a4.871,4.871,0,0,1,4.432-2.645c2.767,0,4.358,1.445,4.358,4.75v7a.91.91,0,0,1-1.029,1.029h-1.052a.92.92,0,0,1-1.029-1.029v-6.365c0-1.518-.391-2.546-1.958-2.546-2.2,0-3.6,1.836-3.6,4.088v4.823a.9.9,0,0,1-1,1.029h-1.077a.9.9,0,0,1-1-1.029Z" fill="#fff"/>
    <path id="Path_148" data-name="Path 148" d="M130.771,437.667v-.734a.912.912,0,0,1,1-1.028h1.077a.929.929,0,0,1,1.029,1.028v.734a.912.912,0,0,1-1.029,1h-1.077A.894.894,0,0,1,130.771,437.667Zm0,4.162a.912.912,0,0,1,1-1.028h1.077a.911.911,0,0,1,1,1.028v10.43a.9.9,0,0,1-1,1.029h-1.077a.9.9,0,0,1-1-1.029Z" fill="#fff"/>
    <path id="Path_149" data-name="Path 149" d="M142.94,440.507a6.979,6.979,0,0,1,4.088,1.249.919.919,0,0,1,.2,1.4l-.318.489c-.367.564-.783.564-1.371.269a4.372,4.372,0,0,0-2.424-.758,3.71,3.71,0,0,0-3.795,3.868,3.787,3.787,0,0,0,3.893,3.917,4.886,4.886,0,0,0,2.791-.954c.612-.343,1.077-.27,1.4.318l.245.465a.958.958,0,0,1-.27,1.371,7.419,7.419,0,0,1-4.431,1.444,6.541,6.541,0,1,1,0-13.074Z" fill="#fff"/>
    <path id="Path_150" data-name="Path 150" d="M156.258,445.575h.514v-.293a2.041,2.041,0,0,0-2.326-2.2,5.646,5.646,0,0,0-2.6.71.921.921,0,0,1-1.371-.416l-.245-.465a.913.913,0,0,1,.392-1.372,8.866,8.866,0,0,1,4.089-1.028c3.231,0,5.165,1.812,5.165,4.97v6.782a.909.909,0,0,1-1.028,1.029h-.832a.9.9,0,0,1-1-1.029v-.489a2.449,2.449,0,0,1,.049-.539h-.049a4.547,4.547,0,0,1-3.918,2.35,3.83,3.83,0,0,1-4.137-3.746C148.962,446.188,153.467,445.575,156.258,445.575Zm-2.326,5.632c1.739,0,2.865-1.763,2.865-3.281v-.465h-.514c-1.567,0-4.236.245-4.236,2.105A1.7,1.7,0,0,0,153.932,451.207Z" fill="#fff"/>
    <path id="Path_151" data-name="Path 151" d="M162.745,436.933a.911.911,0,0,1,1-1.028h1.077a.912.912,0,0,1,1,1.028V449.15c0,1.224.514,1.445.979,1.494a.8.8,0,0,1,.759.881v.832a.926.926,0,0,1-1.028,1.053c-1.665,0-3.795-.441-3.795-4.015Z" fill="#fff"/>
    <path id="Path_152" data-name="Path 152" d="M176.871,436.884a.971.971,0,0,1,1.053-.979h1.543a1.108,1.108,0,0,1,1.15.832l3.11,7.761c.391,1.029.881,2.546.881,2.546h.049s.465-1.517.857-2.546l3.11-7.761a1.118,1.118,0,0,1,1.175-.832h1.518a.958.958,0,0,1,1.053.979l1.248,15.351a.883.883,0,0,1-.979,1.053h-1.1a.958.958,0,0,1-1.053-.979l-.661-8.741c-.073-1.151-.024-2.693-.024-2.693h-.049s-.539,1.689-.931,2.693l-2.521,5.925a1.115,1.115,0,0,1-1.151.808h-1.029a1.124,1.124,0,0,1-1.175-.808l-2.5-5.925c-.392-1-.955-2.718-.955-2.718h-.049s.049,1.567-.025,2.718l-.66,8.741a.946.946,0,0,1-1.053.979h-1.1a.882.882,0,0,1-.979-1.053Z" fill="#fff"/>
    <path id="Path_153" data-name="Path 153" d="M202.945,445.575h.514v-.293a2.041,2.041,0,0,0-2.326-2.2,5.643,5.643,0,0,0-2.6.71.921.921,0,0,1-1.371-.416l-.245-.465a.913.913,0,0,1,.392-1.372,8.862,8.862,0,0,1,4.089-1.028c3.231,0,5.165,1.812,5.165,4.97v6.782a.909.909,0,0,1-1.028,1.029h-.832a.9.9,0,0,1-1-1.029v-.489a2.449,2.449,0,0,1,.049-.539H203.7a4.547,4.547,0,0,1-3.918,2.35,3.83,3.83,0,0,1-4.137-3.746C195.649,446.188,200.154,445.575,202.945,445.575Zm-2.326,5.632c1.739,0,2.865-1.763,2.865-3.281v-.465h-.514c-1.567,0-4.237.245-4.237,2.105A1.7,1.7,0,0,0,200.619,451.207Z" fill="#fff"/>
    <path id="Path_154" data-name="Path 154" d="M209.457,441.829a.912.912,0,0,1,1-1.028h.954a.911.911,0,0,1,1,1.028v.759a4,4,0,0,1-.049.564h.049a4.871,4.871,0,0,1,4.432-2.645c2.766,0,4.358,1.445,4.358,4.75v7a.909.909,0,0,1-1.028,1.029h-1.053a.919.919,0,0,1-1.028-1.029v-6.365c0-1.518-.392-2.546-1.959-2.546-2.2,0-3.6,1.836-3.6,4.088v4.823a.9.9,0,0,1-1,1.029h-1.077a.9.9,0,0,1-1-1.029Z" fill="#fff"/>
    <path id="Path_155" data-name="Path 155" d="M230.463,445.575h.514v-.293a2.041,2.041,0,0,0-2.326-2.2,5.646,5.646,0,0,0-2.6.71.921.921,0,0,1-1.371-.416l-.245-.465a.913.913,0,0,1,.392-1.372,8.866,8.866,0,0,1,4.089-1.028c3.231,0,5.165,1.812,5.165,4.97v6.782a.909.909,0,0,1-1.028,1.029h-.832a.9.9,0,0,1-1-1.029v-.489a2.449,2.449,0,0,1,.049-.539h-.049a4.546,4.546,0,0,1-3.917,2.35,3.83,3.83,0,0,1-4.138-3.746C223.167,446.188,227.672,445.575,230.463,445.575Zm-2.326,5.632c1.739,0,2.865-1.763,2.865-3.281v-.465h-.514c-1.567,0-4.236.245-4.236,2.105A1.7,1.7,0,0,0,228.137,451.207Z" fill="#fff"/>
    <path id="Path_156" data-name="Path 156" d="M239.3,455.32a6.791,6.791,0,0,0,2.522.465c1.91,0,3.526-.808,3.526-3.036v-.93a5.325,5.325,0,0,1,.049-.637h-.049a3.653,3.653,0,0,1-3.428,1.861c-3.648,0-5.656-2.889-5.656-6.341,0-3.4,1.91-6.2,5.632-6.2,2.913,0,3.7,1.91,3.7,1.91h.049a1.746,1.746,0,0,1-.025-.318v-.466c0-.465.343-.832,1-.832h.833a.911.911,0,0,1,1,1.028v10.7c0,4.284-3.379,5.9-6.464,5.9a10,10,0,0,1-3.648-.662.878.878,0,0,1-.538-1.322l.2-.563A.9.9,0,0,1,239.3,455.32Zm6.121-8.545c0-2.865-1.42-3.623-3.036-3.623-1.934,0-2.987,1.371-2.987,3.427,0,2.253,1.126,3.844,3.134,3.844C244,450.423,245.421,449.566,245.421,446.775Z" fill="#fff"/>
    <path id="Path_157" data-name="Path 157" d="M257.123,440.507c3.55,0,5.533,2.522,5.533,5.95a1.082,1.082,0,0,1-1.077,1.053h-7.614a3.588,3.588,0,0,0,3.746,3.427,5.164,5.164,0,0,0,2.693-.807c.612-.3,1.053-.221,1.371.342l.294.49a.93.93,0,0,1-.343,1.371,7.9,7.9,0,0,1-4.236,1.248,6.4,6.4,0,0,1-6.708-6.537A6.158,6.158,0,0,1,257.123,440.507Zm2.448,5.117a2.539,2.539,0,0,0-2.522-2.766,3.042,3.042,0,0,0-3.011,2.766Z" fill="#fff"/>
    <path id="Path_158" data-name="Path 158" d="M264.908,441.829a.912.912,0,0,1,1-1.028h.955a.911.911,0,0,1,1,1.028v.759a4.077,4.077,0,0,1-.048.564h.048a4.8,4.8,0,0,1,4.089-2.645,3.466,3.466,0,0,1,3.649,2.571h.048a4.951,4.951,0,0,1,4.26-2.571c2.6,0,4.089,1.469,4.089,4.75v7a.919.919,0,0,1-1.028,1.029h-1.053a.909.909,0,0,1-1.028-1.029v-6.414c0-1.42-.27-2.5-1.714-2.5-2.105,0-3.183,2.154-3.183,4.333v4.578a.9.9,0,0,1-1,1.029h-1.077a.919.919,0,0,1-1.028-1.029v-6.414c0-1.347-.2-2.5-1.665-2.5-2.2,0-3.232,2.252-3.232,4.333v4.578a.9.9,0,0,1-1,1.029h-1.077a.9.9,0,0,1-1-1.029Z" fill="#fff"/>
    <path id="Path_159" data-name="Path 159" d="M292.475,440.507c3.551,0,5.534,2.522,5.534,5.95a1.082,1.082,0,0,1-1.077,1.053h-7.615a3.589,3.589,0,0,0,3.746,3.427,5.161,5.161,0,0,0,2.693-.807c.612-.3,1.053-.221,1.372.342l.293.49a.93.93,0,0,1-.343,1.371,7.891,7.891,0,0,1-4.235,1.248,6.4,6.4,0,0,1-6.709-6.537A6.159,6.159,0,0,1,292.475,440.507Zm2.449,5.117a2.54,2.54,0,0,0-2.522-2.766,3.042,3.042,0,0,0-3.011,2.766Z" fill="#fff"/>
    <path id="Path_160" data-name="Path 160" d="M300.26,441.829a.912.912,0,0,1,1-1.028h.955a.911.911,0,0,1,1,1.028v.759a4.08,4.08,0,0,1-.048.564h.048a4.871,4.871,0,0,1,4.432-2.645c2.767,0,4.358,1.445,4.358,4.75v7a.909.909,0,0,1-1.028,1.029h-1.053a.919.919,0,0,1-1.028-1.029v-6.365c0-1.518-.392-2.546-1.959-2.546-2.2,0-3.6,1.836-3.6,4.088v4.823a.9.9,0,0,1-1,1.029h-1.077a.9.9,0,0,1-1-1.029Z" fill="#fff"/>
    <path id="Path_161" data-name="Path 161" d="M315.488,443.445h-.661a.9.9,0,0,1-1-1.028V442a.919.919,0,0,1,1.028-1.028h.71v-2.547a.93.93,0,0,1,1.029-1.028h.979a.929.929,0,0,1,1.028,1.028v2.547h1.812A.93.93,0,0,1,321.438,442v.416a.912.912,0,0,1-1,1.028H318.6v4.848a2.044,2.044,0,0,0,2.008,2.326c.759.073,1.028.318,1.028,1v.759c0,.735-.416,1.028-1.273,1.028-2.228,0-4.872-1.2-4.872-4.578Z" fill="#fff"/>
    <path id="Path_162" data-name="Path 162" d="M85.676,479.777l.538-.783c.392-.539.808-.563,1.42-.22a6.107,6.107,0,0,0,3.526,1.273c1.616,0,2.595-.808,2.595-1.983,0-3.306-8.1-2.62-8.1-8.031,0-3.06,2.547-5.044,5.852-5.044a8.086,8.086,0,0,1,4.48,1.322.968.968,0,0,1,.319,1.4l-.441.808c-.367.71-.881.612-1.395.342a5.693,5.693,0,0,0-3.012-.954c-1.616,0-2.644.783-2.644,1.959,0,3.256,8.1,2.423,8.1,7.957,0,2.815-2.106,5.141-5.754,5.141a9.225,9.225,0,0,1-5.337-1.762A.911.911,0,0,1,85.676,479.777Z" fill="#fff"/>
    <path id="Path_163" data-name="Path 163" d="M99.949,472.824h-.661a.9.9,0,0,1-1-1.028v-.417a.919.919,0,0,1,1.028-1.028h.71V467.8a.93.93,0,0,1,1.028-1.029h.98a.93.93,0,0,1,1.028,1.029v2.546h1.812a.93.93,0,0,1,1.029,1.028v.417a.912.912,0,0,1-1.005,1.028h-1.836v4.848A2.044,2.044,0,0,0,105.066,480c.759.073,1.028.318,1.028,1v.758c0,.735-.416,1.029-1.273,1.029-2.228,0-4.872-1.2-4.872-4.579Z" fill="#fff"/>
    <path id="Path_164" data-name="Path 164" d="M108.175,471.208a.911.911,0,0,1,1-1.028h.955a.929.929,0,0,1,1.028,1.028v1.175a5.222,5.222,0,0,1-.073.857h.048c.49-1.493,1.861-3.158,3.624-3.158.686,0,.93.342.93,1.028v.955a.947.947,0,0,1-1.052,1.029c-2.278,0-3.379,2.252-3.379,4.529v4.015a.9.9,0,0,1-1,1.028h-1.077a.9.9,0,0,1-1-1.028Z" fill="#fff"/>
    <path id="Path_165" data-name="Path 165" d="M123.575,474.954h.514v-.293a2.041,2.041,0,0,0-2.326-2.2,5.639,5.639,0,0,0-2.6.71.921.921,0,0,1-1.371-.416l-.245-.466a.912.912,0,0,1,.392-1.371,8.861,8.861,0,0,1,4.088-1.028c3.232,0,5.166,1.812,5.166,4.97v6.782a.908.908,0,0,1-1.028,1.028h-.832a.9.9,0,0,1-1-1.028v-.49a2.444,2.444,0,0,1,.049-.538h-.049a4.547,4.547,0,0,1-3.918,2.35,3.831,3.831,0,0,1-4.137-3.746C116.279,475.566,120.783,474.954,123.575,474.954Zm-2.326,5.631c1.738,0,2.864-1.763,2.864-3.28v-.465H123.6c-1.567,0-4.235.244-4.235,2.105A1.7,1.7,0,0,0,121.249,480.585Z" fill="#fff"/>
    <path id="Path_166" data-name="Path 166" d="M130.625,472.824h-.661a.9.9,0,0,1-1-1.028v-.417a.919.919,0,0,1,1.028-1.028h.71V467.8a.93.93,0,0,1,1.029-1.029h.979a.93.93,0,0,1,1.028,1.029v2.546h1.812a.929.929,0,0,1,1.028,1.028v.417a.911.911,0,0,1-1,1.028h-1.837v4.848A2.044,2.044,0,0,0,135.742,480c.759.073,1.028.318,1.028,1v.758c0,.735-.416,1.029-1.273,1.029-2.228,0-4.872-1.2-4.872-4.579Z" fill="#fff"/>
    <path id="Path_167" data-name="Path 167" d="M144.336,469.886c3.55,0,5.533,2.522,5.533,5.949a1.082,1.082,0,0,1-1.077,1.053h-7.615a3.589,3.589,0,0,0,3.746,3.428,5.16,5.16,0,0,0,2.693-.808c.612-.294,1.053-.22,1.372.343l.293.49a.93.93,0,0,1-.343,1.371,7.89,7.89,0,0,1-4.235,1.248,6.4,6.4,0,0,1-6.709-6.537A6.159,6.159,0,0,1,144.336,469.886ZM146.784,475a2.541,2.541,0,0,0-2.522-2.767A3.042,3.042,0,0,0,141.251,475Z" fill="#fff"/>
    <path id="Path_168" data-name="Path 168" d="M154.446,484.7a6.791,6.791,0,0,0,2.522.465c1.91,0,3.525-.808,3.525-3.036v-.93a5.2,5.2,0,0,1,.05-.637h-.05a3.651,3.651,0,0,1-3.427,1.861c-3.648,0-5.656-2.889-5.656-6.342,0-3.4,1.91-6.194,5.632-6.194,2.913,0,3.7,1.91,3.7,1.91h.049a1.837,1.837,0,0,1-.024-.319v-.465c0-.465.342-.832,1-.832h.832a.912.912,0,0,1,1,1.028v10.7c0,4.284-3.379,5.9-6.464,5.9a10.023,10.023,0,0,1-3.648-.661.878.878,0,0,1-.538-1.322l.195-.563A.9.9,0,0,1,154.446,484.7Zm6.121-8.545c0-2.865-1.42-3.624-3.036-3.624-1.934,0-2.987,1.371-2.987,3.428,0,2.252,1.126,3.844,3.134,3.844C159.147,479.8,160.567,478.945,160.567,476.154Z" fill="#fff"/>
    <path id="Path_169" data-name="Path 169" d="M166.687,467.046v-.735a.911.911,0,0,1,1-1.028h1.078a.929.929,0,0,1,1.028,1.028v.735a.912.912,0,0,1-1.028,1H167.69A.893.893,0,0,1,166.687,467.046Zm0,4.162a.911.911,0,0,1,1-1.028h1.078a.911.911,0,0,1,1,1.028v10.43a.9.9,0,0,1-1,1.028H167.69a.9.9,0,0,1-1-1.028Z" fill="#fff"/>
    <path id="Path_170" data-name="Path 170" d="M178.439,469.886c3.55,0,5.533,2.522,5.533,5.949a1.082,1.082,0,0,1-1.077,1.053H175.28a3.589,3.589,0,0,0,3.746,3.428,5.16,5.16,0,0,0,2.693-.808c.612-.294,1.053-.22,1.372.343l.293.49a.93.93,0,0,1-.343,1.371,7.89,7.89,0,0,1-4.235,1.248,6.4,6.4,0,0,1-6.709-6.537A6.159,6.159,0,0,1,178.439,469.886ZM180.887,475a2.541,2.541,0,0,0-2.522-2.767A3.042,3.042,0,0,0,175.354,475Z" fill="#fff"/>
    <path id="Path_171" data-name="Path 171" d="M185.684,480.291l.294-.44c.368-.514.784-.563,1.4-.245a5.6,5.6,0,0,0,2.791.857c1.077,0,1.738-.49,1.738-1.273,0-2.032-6.194-1.273-6.194-5.558,0-2.448,2.154-3.746,4.774-3.746a6.948,6.948,0,0,1,3.477.906.932.932,0,0,1,.367,1.371l-.245.441c-.293.587-.759.661-1.371.392a5.556,5.556,0,0,0-2.375-.613c-1.077,0-1.689.441-1.689,1.225,0,2.056,6.194,1.248,6.194,5.509,0,2.2-1.86,3.843-4.749,3.843a7.306,7.306,0,0,1-4.163-1.273A.88.88,0,0,1,185.684,480.291Z" fill="#fff"/>
    <path id="Path_172" data-name="Path 172" d="M203.287,467.046v-.735a.912.912,0,0,1,1-1.028h1.077a.93.93,0,0,1,1.029,1.028v.735a.912.912,0,0,1-1.029,1h-1.077A.894.894,0,0,1,203.287,467.046Zm0,4.162a.912.912,0,0,1,1-1.028h1.077a.912.912,0,0,1,1,1.028v10.43a.9.9,0,0,1-1,1.028h-1.077a.9.9,0,0,1-1-1.028Z" fill="#fff"/>
    <path id="Path_173" data-name="Path 173" d="M209.457,471.208a.912.912,0,0,1,1-1.028h.954a.911.911,0,0,1,1,1.028v.759a3.992,3.992,0,0,1-.049.563h.049a4.871,4.871,0,0,1,4.432-2.644c2.766,0,4.358,1.445,4.358,4.75v7a.908.908,0,0,1-1.028,1.028h-1.053a.918.918,0,0,1-1.028-1.028v-6.365c0-1.519-.392-2.547-1.959-2.547-2.2,0-3.6,1.836-3.6,4.089v4.823a.9.9,0,0,1-1,1.028h-1.077a.9.9,0,0,1-1-1.028Z" fill="#fff"/>
    <path id="Path_174" data-name="Path 174" d="M230.928,472.824h-.661a.9.9,0,0,1-1-1.028v-.417a.919.919,0,0,1,1.028-1.028H231V467.8a.93.93,0,0,1,1.029-1.029h.979a.93.93,0,0,1,1.028,1.029v2.546h1.812a.929.929,0,0,1,1.028,1.028v.417a.911.911,0,0,1-1,1.028h-1.837v4.848A2.044,2.044,0,0,0,236.045,480c.759.073,1.028.318,1.028,1v.758c0,.735-.416,1.029-1.273,1.029-2.228,0-4.872-1.2-4.872-4.579Z" fill="#fff"/>
    <path id="Path_175" data-name="Path 175" d="M239.154,466.311a.929.929,0,0,1,1.028-1.028h1.053a.919.919,0,0,1,1.028,1.028v5.044a7.039,7.039,0,0,1-.074,1.053h.049a4.915,4.915,0,0,1,4.334-2.522c2.766,0,4.358,1.445,4.358,4.75v7a.918.918,0,0,1-1.028,1.028h-1.053a.908.908,0,0,1-1.028-1.028v-6.365c0-1.519-.392-2.547-1.959-2.547-2.179,0-3.6,1.763-3.6,4.138v4.774a.908.908,0,0,1-1.028,1.028h-1.053a.918.918,0,0,1-1.028-1.028Z" fill="#fff"/>
    <path id="Path_176" data-name="Path 176" d="M259.4,469.886c3.55,0,5.533,2.522,5.533,5.949a1.082,1.082,0,0,1-1.077,1.053h-7.615a3.589,3.589,0,0,0,3.746,3.428,5.16,5.16,0,0,0,2.693-.808c.612-.294,1.053-.22,1.372.343l.293.49a.93.93,0,0,1-.343,1.371,7.89,7.89,0,0,1-4.235,1.248,6.4,6.4,0,0,1-6.708-6.537A6.158,6.158,0,0,1,259.4,469.886ZM261.849,475a2.541,2.541,0,0,0-2.522-2.767A3.042,3.042,0,0,0,256.316,475Z" fill="#fff"/>
    <path id="Path_177" data-name="Path 177" d="M86.435,495.69a.911.911,0,0,1,1-1.028h5.681a5.328,5.328,0,0,1,5.533,5.656,5.388,5.388,0,0,1-5.533,5.729h-3.55v4.97a.9.9,0,0,1-1,1.028H87.438a.9.9,0,0,1-1-1.028Zm6.1,7.614a2.721,2.721,0,0,0,2.914-2.986,2.683,2.683,0,0,0-2.865-2.939H89.569V503.3Z" fill="#fff"/>
    <path id="Path_178" data-name="Path 178" d="M106.9,504.333h.514v-.294a2.042,2.042,0,0,0-2.326-2.2,5.646,5.646,0,0,0-2.595.71.92.92,0,0,1-1.371-.416l-.245-.465a.912.912,0,0,1,.392-1.371,8.866,8.866,0,0,1,4.089-1.028c3.232,0,5.166,1.811,5.166,4.97v6.782a.909.909,0,0,1-1.029,1.028h-.832a.9.9,0,0,1-1-1.028v-.49a2.444,2.444,0,0,1,.049-.538h-.049a4.547,4.547,0,0,1-3.918,2.35,3.831,3.831,0,0,1-4.137-3.746C99.606,504.945,104.111,504.333,106.9,504.333Zm-2.326,5.631c1.739,0,2.865-1.763,2.865-3.281v-.465h-.514c-1.567,0-4.236.245-4.236,2.106A1.7,1.7,0,0,0,104.576,509.964Z" fill="#fff"/>
    <path id="Path_179" data-name="Path 179" d="M113.414,500.587a.911.911,0,0,1,1-1.029h.955a.912.912,0,0,1,1,1.029v.759a3.993,3.993,0,0,1-.049.563h.049a4.871,4.871,0,0,1,4.432-2.644c2.767,0,4.358,1.444,4.358,4.749v7a.909.909,0,0,1-1.029,1.028h-1.052a.919.919,0,0,1-1.029-1.028v-6.366c0-1.518-.391-2.546-1.958-2.546-2.2,0-3.6,1.836-3.6,4.088v4.824a.9.9,0,0,1-1,1.028h-1.077a.9.9,0,0,1-1-1.028Z" fill="#fff"/>
    <path id="Path_180" data-name="Path 180" d="M133,499.265a3.953,3.953,0,0,1,3.648,1.787h.048a5.306,5.306,0,0,1-.048-.71V495.69a.911.911,0,0,1,1-1.028h1.078a.911.911,0,0,1,1,1.028v15.327a.9.9,0,0,1-1,1.028h-.906c-.661,0-1-.318-1-.93v-.49a2.007,2.007,0,0,1,.049-.44h-.049a4.333,4.333,0,0,1-3.917,2.154c-3.379,0-5.558-2.669-5.558-6.537C127.344,501.835,129.694,499.265,133,499.265Zm.587,10.454c1.616,0,3.134-1.175,3.134-3.942,0-1.934-1-3.844-3.109-3.844-1.69,0-3.134,1.4-3.134,3.869C130.478,508.177,131.751,509.719,133.587,509.719Z" fill="#fff"/>
    <path id="Path_181" data-name="Path 181" d="M148.423,499.265c3.551,0,5.534,2.522,5.534,5.949a1.082,1.082,0,0,1-1.077,1.053h-7.615a3.588,3.588,0,0,0,3.746,3.427,5.161,5.161,0,0,0,2.693-.807c.612-.294,1.053-.221,1.372.343l.293.489a.93.93,0,0,1-.343,1.371,7.89,7.89,0,0,1-4.235,1.249,6.4,6.4,0,0,1-6.709-6.537A6.159,6.159,0,0,1,148.423,499.265Zm2.449,5.117a2.541,2.541,0,0,0-2.522-2.767,3.042,3.042,0,0,0-3.011,2.767Z" fill="#fff"/>
    <path id="Path_182" data-name="Path 182" d="M156.208,500.587a.912.912,0,0,1,1-1.029h.955a.911.911,0,0,1,1,1.029v.759a4.073,4.073,0,0,1-.048.563h.048a4.8,4.8,0,0,1,4.089-2.644,3.465,3.465,0,0,1,3.649,2.57h.048a4.95,4.95,0,0,1,4.26-2.57c2.6,0,4.089,1.469,4.089,4.749v7a.919.919,0,0,1-1.028,1.028h-1.053a.908.908,0,0,1-1.028-1.028V504.6c0-1.42-.27-2.5-1.714-2.5-2.106,0-3.183,2.154-3.183,4.333v4.579a.9.9,0,0,1-1,1.028h-1.077a.919.919,0,0,1-1.028-1.028V504.6c0-1.347-.2-2.5-1.665-2.5-2.2,0-3.232,2.252-3.232,4.333v4.579a.9.9,0,0,1-1,1.028h-1.077a.9.9,0,0,1-1-1.028Z" fill="#fff"/>
    <path id="Path_183" data-name="Path 183" d="M178.193,496.424v-.734a.912.912,0,0,1,1-1.028h1.077a.929.929,0,0,1,1.029,1.028v.734a.911.911,0,0,1-1.029,1H179.2A.894.894,0,0,1,178.193,496.424Zm0,4.163a.912.912,0,0,1,1-1.029h1.077a.911.911,0,0,1,1,1.029v10.43a.9.9,0,0,1-1,1.028H179.2a.9.9,0,0,1-1-1.028Z" fill="#fff"/>
    <path id="Path_184" data-name="Path 184" d="M190.361,499.265a6.984,6.984,0,0,1,4.089,1.248.92.92,0,0,1,.2,1.4l-.319.49c-.367.563-.783.563-1.371.269a4.361,4.361,0,0,0-2.424-.759,3.709,3.709,0,0,0-3.794,3.868,3.786,3.786,0,0,0,3.892,3.917,4.886,4.886,0,0,0,2.792-.954c.612-.343,1.077-.27,1.4.318l.245.465a.957.957,0,0,1-.27,1.371,7.416,7.416,0,0,1-4.431,1.445,6.541,6.541,0,1,1,0-13.074Z" fill="#fff"/>
    <path id="Path_185" data-name="Path 185" d="M203.924,495.69a.911.911,0,0,1,1-1.028H213.3a.929.929,0,0,1,1.028,1.028v.686a.911.911,0,0,1-1.028,1h-6.243v4.554h4.848a.912.912,0,0,1,1.028,1v.686a.919.919,0,0,1-1.028,1.028h-4.848v4.676h6.635a.912.912,0,0,1,1.028,1v.686a.919.919,0,0,1-1.028,1.028h-8.765a.9.9,0,0,1-1-1.028Z" fill="#fff"/>
    <path id="Path_186" data-name="Path 186" d="M216.948,500.587a.912.912,0,0,1,1-1.029h.955a.929.929,0,0,1,1.028,1.029v1.175a5.239,5.239,0,0,1-.073.857h.049c.489-1.494,1.861-3.158,3.623-3.158.686,0,.931.342.931,1.028v.955a.947.947,0,0,1-1.053,1.028c-2.277,0-3.379,2.252-3.379,4.529v4.016a.9.9,0,0,1-1,1.028h-1.077a.9.9,0,0,1-1-1.028Z" fill="#fff"/>
    <path id="Path_187" data-name="Path 187" d="M232.348,504.333h.514v-.294a2.042,2.042,0,0,0-2.326-2.2,5.646,5.646,0,0,0-2.6.71.92.92,0,0,1-1.371-.416l-.245-.465a.912.912,0,0,1,.392-1.371,8.862,8.862,0,0,1,4.089-1.028c3.231,0,5.165,1.811,5.165,4.97v6.782a.908.908,0,0,1-1.028,1.028h-.832a.9.9,0,0,1-1-1.028v-.49a2.443,2.443,0,0,1,.049-.538h-.049a4.547,4.547,0,0,1-3.918,2.35,3.83,3.83,0,0,1-4.137-3.746C225.052,504.945,229.557,504.333,232.348,504.333Zm-2.326,5.631c1.739,0,2.865-1.763,2.865-3.281v-.465h-.514c-1.567,0-4.236.245-4.236,2.106A1.7,1.7,0,0,0,230.022,509.964Z" fill="#fff"/>
  </g>
</svg>
