<?xml version="1.0" encoding="utf-8"?>
<!-- Generator: Adobe Illustrator 25.1.0, SVG Export Plug-In . SVG Version: 6.00 Build 0)  -->
<svg version="1.1" id="Layer_1" xmlns="http://www.w3.org/2000/svg" xmlns:xlink="http://www.w3.org/1999/xlink" x="0px" y="0px"
	 viewBox="0 0 51 51" style="enable-background:new 0 0 51 51;" xml:space="preserve">
<style type="text/css">
	.st0{fill:#2CB473;}
	.st1{fill:#FFFFFF;}
</style>
<g>
	<circle class="st0" cx="25.5" cy="25.5" r="25.3"/>
	<g>
		<path class="st1" d="M37.8,25.7c0.7-0.4,1-1.1,1-1.8c0-1.1-0.8-2-2-2H29c1.8-4.6,0.9-7.7-0.5-9.1c-0.7-0.6-1.5-0.9-2.1-0.6
			c-0.5,0.3-0.8,0.9-0.7,1.7c0.4,4.5-5.2,9-5.2,9c-0.1,0.1-0.1,0.1-0.1,0.2v10.4c0,0.1,0.1,0.2,0.2,0.3c5.5,1.9,12,2,13.3,2
			c1.3,0,2.4-0.5,2.4-1.7c0-0.5-0.2-1-0.6-1.3c1.9-0.1,2.5-2.2,1.4-3.4c0,0,0-0.1-0.1-0.1c1.1-0.1,1.7-1.1,1.7-2
			C38.7,26.7,38.3,26.1,37.8,25.7z"/>
		<path class="st1" d="M17.4,21.5h-4.6c-0.3,0-0.6,0.3-0.6,0.6v13.8c0,0.3,0.3,0.6,0.6,0.6h4.6c0.3,0,0.6-0.3,0.6-0.6V22
			C17.9,21.7,17.7,21.5,17.4,21.5z"/>
	</g>
</g>
</svg>
