<svg xmlns="http://www.w3.org/2000/svg" width="883.07" height="345.303" viewBox="0 0 883.07 345.303">
  <g id="Title" transform="translate(-89.906 -220.652)">
    <g id="Group_5" data-name="Group 5">
      <path id="Path_20" data-name="Path 20" d="M108.446,461.649a20.064,20.064,0,0,1,11.752,3.6,1.968,1.968,0,0,1,.4,2.938l-.911,1.468c-.709,1.166-1.672,1.268-2.888.507a14.967,14.967,0,0,0-8.1-2.533c-7.852,0-12.057,5.724-12.057,12.361,0,6.737,4.357,12.866,12.107,12.866a15.07,15.07,0,0,0,8.814-3.14c1.115-.811,2.128-.811,2.938.354l1.013,1.368a1.968,1.968,0,0,1-.3,2.938A20.165,20.165,0,0,1,108.5,498.83c-11.3,0-18.591-8.155-18.591-18.742C89.906,469.652,97.555,461.649,108.446,461.649Z" fill="#fff"/>
      <path id="Path_21" data-name="Path 21" d="M126.478,464.384a1.886,1.886,0,0,1,2.076-2.127h2.229a1.886,1.886,0,0,1,2.077,2.127v25.278c0,2.533,1.064,2.989,2.027,3.09a1.649,1.649,0,0,1,1.57,1.823V496.3a1.916,1.916,0,0,1-2.128,2.179c-3.444,0-7.851-.912-7.851-8.307Z" fill="#fff"/>
      <path id="Path_22" data-name="Path 22" d="M140.659,465.9v-1.52a1.886,1.886,0,0,1,2.077-2.127h2.229a1.923,1.923,0,0,1,2.128,2.127v1.52a1.886,1.886,0,0,1-2.128,2.077h-2.229A1.85,1.85,0,0,1,140.659,465.9Zm0,8.612a1.887,1.887,0,0,1,2.077-2.128h2.229a1.887,1.887,0,0,1,2.078,2.128V496.1a1.866,1.866,0,0,1-2.078,2.128h-2.229a1.866,1.866,0,0,1-2.077-2.128Z" fill="#fff"/>
      <path id="Path_23" data-name="Path 23" d="M153.425,474.516a1.886,1.886,0,0,1,2.076-2.128h1.976a1.886,1.886,0,0,1,2.076,2.128v1.57a8.286,8.286,0,0,1-.1,1.165h.1a10.079,10.079,0,0,1,9.169-5.471c5.724,0,9.017,2.989,9.017,9.827V496.1a1.881,1.881,0,0,1-2.128,2.128h-2.178A1.9,1.9,0,0,1,171.3,496.1v-13.17c0-3.141-.81-5.268-4.052-5.268-4.559,0-7.446,3.8-7.446,8.458v9.98a1.866,1.866,0,0,1-2.077,2.128H155.5a1.865,1.865,0,0,1-2.076-2.128Z" fill="#fff"/>
      <path id="Path_24" data-name="Path 24" d="M183.765,465.9v-1.52a1.886,1.886,0,0,1,2.076-2.127h2.229a1.922,1.922,0,0,1,2.128,2.127v1.52a1.886,1.886,0,0,1-2.128,2.077h-2.229A1.849,1.849,0,0,1,183.765,465.9Zm0,8.612a1.886,1.886,0,0,1,2.076-2.128h2.229a1.886,1.886,0,0,1,2.077,2.128V496.1a1.865,1.865,0,0,1-2.077,2.128h-2.229a1.865,1.865,0,0,1-2.076-2.128Z" fill="#fff"/>
      <path id="Path_25" data-name="Path 25" d="M208.941,471.78a14.45,14.45,0,0,1,8.459,2.583c1.064.71,1.114,1.773.4,2.888l-.659,1.013c-.76,1.166-1.62,1.166-2.836.557a9.033,9.033,0,0,0-5.015-1.57,7.676,7.676,0,0,0-7.852,8,7.834,7.834,0,0,0,8.055,8.1,10.106,10.106,0,0,0,5.774-1.974c1.267-.71,2.229-.558,2.888.657l.507.963a1.982,1.982,0,0,1-.558,2.836,15.341,15.341,0,0,1-9.168,2.989c-8.562,0-14.033-6.028-14.033-13.525C194.908,477.961,200.379,471.78,208.941,471.78Z" fill="#fff"/>
      <path id="Path_26" data-name="Path 26" d="M236.495,482.266h1.065v-.607c0-3.395-2.179-4.56-4.813-4.56a11.673,11.673,0,0,0-5.369,1.469c-1.267.557-2.229.355-2.838-.861l-.506-.962a1.889,1.889,0,0,1,.811-2.838,18.346,18.346,0,0,1,8.46-2.127c6.685,0,10.687,3.749,10.687,10.283V496.1a1.88,1.88,0,0,1-2.127,2.128h-1.722a1.866,1.866,0,0,1-2.077-2.128v-1.013a5.073,5.073,0,0,1,.1-1.114h-.1a9.407,9.407,0,0,1-8.1,4.862c-4.711,0-8.561-3.039-8.561-7.75C221.4,483.532,230.721,482.266,236.495,482.266Zm-4.812,11.651c3.6,0,5.927-3.647,5.927-6.788v-.962h-1.063c-3.242,0-8.765.506-8.765,4.356C227.782,492.245,229.1,493.917,231.683,493.917Z" fill="#fff"/>
      <path id="Path_27" data-name="Path 27" d="M249.917,464.384a1.886,1.886,0,0,1,2.077-2.127h2.229a1.886,1.886,0,0,1,2.076,2.127v25.278c0,2.533,1.064,2.989,2.026,3.09a1.649,1.649,0,0,1,1.571,1.823V496.3a1.915,1.915,0,0,1-2.128,2.179c-3.444,0-7.851-.912-7.851-8.307Z" fill="#fff"/>
      <path id="Path_28" data-name="Path 28" d="M279.144,464.283a2.008,2.008,0,0,1,2.178-2.026h3.192a2.293,2.293,0,0,1,2.38,1.723l6.433,16.057c.811,2.128,1.825,5.268,1.825,5.268h.1s.962-3.14,1.772-5.268l6.434-16.057a2.314,2.314,0,0,1,2.432-1.723h3.14a1.983,1.983,0,0,1,2.178,2.026l2.583,31.761a1.826,1.826,0,0,1-2.026,2.179h-2.279a1.983,1.983,0,0,1-2.179-2.026l-1.367-18.085c-.152-2.38-.05-5.572-.05-5.572h-.1s-1.114,3.495-1.925,5.572l-5.217,12.259a2.307,2.307,0,0,1-2.381,1.671h-2.128a2.325,2.325,0,0,1-2.431-1.671l-5.167-12.259c-.811-2.077-1.976-5.622-1.976-5.622h-.1s.1,3.242-.051,5.622L283.044,496.2a1.957,1.957,0,0,1-2.178,2.026h-2.279a1.828,1.828,0,0,1-2.027-2.179Z" fill="#fff"/>
      <path id="Path_29" data-name="Path 29" d="M333.089,482.266h1.064v-.607c0-3.395-2.178-4.56-4.813-4.56a11.677,11.677,0,0,0-5.369,1.469c-1.266.557-2.229.355-2.837-.861l-.507-.962a1.89,1.89,0,0,1,.812-2.838,18.345,18.345,0,0,1,8.459-2.127c6.686,0,10.688,3.749,10.688,10.283V496.1a1.881,1.881,0,0,1-2.127,2.128h-1.723a1.865,1.865,0,0,1-2.076-2.128v-1.013a5.074,5.074,0,0,1,.1-1.114h-.1a9.409,9.409,0,0,1-8.106,4.862c-4.711,0-8.56-3.039-8.56-7.75C317.994,483.532,327.314,482.266,333.089,482.266Zm-4.812,11.651c3.6,0,5.927-3.647,5.927-6.788v-.962H333.14c-3.242,0-8.764.506-8.764,4.356C324.376,492.245,325.694,493.917,328.277,493.917Z" fill="#fff"/>
      <path id="Path_30" data-name="Path 30" d="M346.562,474.516a1.887,1.887,0,0,1,2.077-2.128h1.976a1.886,1.886,0,0,1,2.076,2.128v1.57a8.285,8.285,0,0,1-.1,1.165h.1a10.077,10.077,0,0,1,9.169-5.471c5.724,0,9.017,2.989,9.017,9.827V496.1a1.881,1.881,0,0,1-2.127,2.128h-2.179a1.9,1.9,0,0,1-2.127-2.128v-13.17c0-3.141-.811-5.268-4.053-5.268-4.559,0-7.447,3.8-7.447,8.458v9.98a1.865,1.865,0,0,1-2.076,2.128h-2.229a1.866,1.866,0,0,1-2.077-2.128Z" fill="#fff"/>
      <path id="Path_31" data-name="Path 31" d="M390.023,482.266h1.064v-.607c0-3.395-2.178-4.56-4.813-4.56a11.677,11.677,0,0,0-5.369,1.469c-1.266.557-2.229.355-2.837-.861l-.507-.962a1.89,1.89,0,0,1,.812-2.838,18.345,18.345,0,0,1,8.459-2.127c6.686,0,10.688,3.749,10.688,10.283V496.1a1.881,1.881,0,0,1-2.127,2.128H393.67a1.865,1.865,0,0,1-2.076-2.128v-1.013a5.073,5.073,0,0,1,.1-1.114h-.1a9.409,9.409,0,0,1-8.106,4.862c-4.711,0-8.56-3.039-8.56-7.75C374.928,483.532,384.248,482.266,390.023,482.266Zm-4.812,11.651c3.6,0,5.927-3.647,5.927-6.788v-.962h-1.064c-3.242,0-8.764.506-8.764,4.356C381.31,492.245,382.628,493.917,385.211,493.917Z" fill="#fff"/>
      <path id="Path_32" data-name="Path 32" d="M408.307,502.427a14.031,14.031,0,0,0,5.218.963c3.951,0,7.294-1.672,7.294-6.281v-1.926a10.907,10.907,0,0,1,.1-1.316h-.1a7.556,7.556,0,0,1-7.091,3.849c-7.548,0-11.7-5.977-11.7-13.12,0-7.041,3.951-12.816,11.651-12.816,6.028,0,7.649,3.952,7.649,3.952h.1a3.691,3.691,0,0,1-.051-.659v-.963c0-.962.708-1.722,2.077-1.722h1.722a1.887,1.887,0,0,1,2.077,2.128v22.137c0,8.864-6.991,12.208-13.374,12.208a20.733,20.733,0,0,1-7.547-1.368,1.817,1.817,0,0,1-1.114-2.736l.4-1.164A1.857,1.857,0,0,1,408.307,502.427Zm12.665-17.679c0-5.927-2.939-7.5-6.282-7.5-4,0-6.18,2.837-6.18,7.092,0,4.66,2.33,7.953,6.484,7.953C418.033,492.3,420.972,490.523,420.972,484.748Z" fill="#fff"/>
      <path id="Path_33" data-name="Path 33" d="M445.182,471.78c7.346,0,11.448,5.218,11.448,12.309a2.239,2.239,0,0,1-2.229,2.179H438.648a7.424,7.424,0,0,0,7.75,7.091,10.677,10.677,0,0,0,5.572-1.671c1.266-.608,2.178-.456,2.837.71l.607,1.013a1.923,1.923,0,0,1-.709,2.836,16.324,16.324,0,0,1-8.763,2.583c-8.561,0-13.88-6.179-13.88-13.525C432.062,477.352,437.432,471.78,445.182,471.78Zm5.065,10.587c-.1-3.6-2.279-5.724-5.217-5.724-3.293,0-5.623,2.28-6.23,5.724Z" fill="#fff"/>
      <path id="Path_34" data-name="Path 34" d="M461.289,474.516a1.886,1.886,0,0,1,2.077-2.128h1.975a1.886,1.886,0,0,1,2.077,2.128v1.57a8.285,8.285,0,0,1-.1,1.165h.1a9.937,9.937,0,0,1,8.459-5.471c3.9,0,6.484,1.824,7.549,5.319h.1a10.239,10.239,0,0,1,8.814-5.319c5.37,0,8.459,3.039,8.459,9.827V496.1a1.9,1.9,0,0,1-2.127,2.128h-2.178a1.881,1.881,0,0,1-2.128-2.128V482.823c0-2.938-.557-5.166-3.546-5.166-4.356,0-6.585,4.457-6.585,8.965V496.1a1.866,1.866,0,0,1-2.077,2.128h-2.228A1.9,1.9,0,0,1,477.8,496.1V482.823c0-2.786-.406-5.166-3.445-5.166-4.559,0-6.687,4.659-6.687,8.965V496.1a1.865,1.865,0,0,1-2.077,2.128h-2.228a1.866,1.866,0,0,1-2.077-2.128Z" fill="#fff"/>
      <path id="Path_35" data-name="Path 35" d="M518.325,471.78c7.346,0,11.448,5.218,11.448,12.309a2.239,2.239,0,0,1-2.229,2.179H511.79a7.425,7.425,0,0,0,7.751,7.091,10.677,10.677,0,0,0,5.572-1.671c1.266-.608,2.178-.456,2.837.71l.607,1.013a1.923,1.923,0,0,1-.709,2.836,16.325,16.325,0,0,1-8.763,2.583c-8.561,0-13.879-6.179-13.879-13.525C505.206,477.352,510.575,471.78,518.325,471.78Zm5.065,10.587c-.1-3.6-2.279-5.724-5.216-5.724-3.294,0-5.624,2.28-6.231,5.724Z" fill="#fff"/>
      <path id="Path_36" data-name="Path 36" d="M534.431,474.516a1.886,1.886,0,0,1,2.076-2.128h1.976a1.886,1.886,0,0,1,2.077,2.128v1.57a8.285,8.285,0,0,1-.1,1.165h.1a10.077,10.077,0,0,1,9.169-5.471c5.724,0,9.016,2.989,9.016,9.827V496.1a1.881,1.881,0,0,1-2.127,2.128H554.44a1.9,1.9,0,0,1-2.127-2.128v-13.17c0-3.141-.811-5.268-4.053-5.268-4.559,0-7.447,3.8-7.447,8.458v9.98a1.865,1.865,0,0,1-2.077,2.128h-2.229a1.865,1.865,0,0,1-2.076-2.128Z" fill="#fff"/>
      <path id="Path_37" data-name="Path 37" d="M565.937,477.859h-1.368a1.865,1.865,0,0,1-2.076-2.127v-.862a1.9,1.9,0,0,1,2.127-2.127h1.469v-5.268a1.923,1.923,0,0,1,2.128-2.128h2.026a1.923,1.923,0,0,1,2.127,2.128v5.268h3.749a1.923,1.923,0,0,1,2.128,2.127v.862a1.886,1.886,0,0,1-2.077,2.127h-3.8v10.03c0,3.85,2.381,4.609,4.154,4.812,1.57.152,2.127.658,2.127,2.077v1.57c0,1.52-.86,2.128-2.633,2.128-4.611,0-10.081-2.482-10.081-9.473Z" fill="#fff"/>
      <path id="Path_38" data-name="Path 38" d="M599.121,493.268l1.114-1.62c.81-1.115,1.672-1.166,2.939-.456a12.62,12.62,0,0,0,7.294,2.633c3.344,0,5.37-1.671,5.37-4.1,0-6.839-16.768-5.421-16.768-16.616,0-6.331,5.269-10.435,12.107-10.435a16.726,16.726,0,0,1,9.27,2.735,2,2,0,0,1,.659,2.888l-.912,1.672c-.76,1.468-1.824,1.266-2.887.708a11.777,11.777,0,0,0-6.231-1.974c-3.344,0-5.471,1.62-5.471,4.052,0,6.737,16.767,5.015,16.767,16.463,0,5.825-4.357,10.637-11.9,10.637a19.08,19.08,0,0,1-11.043-3.646A1.886,1.886,0,0,1,599.121,493.268Z" fill="#fff"/>
      <path id="Path_39" data-name="Path 39" d="M628.651,478.882h-1.367a1.866,1.866,0,0,1-2.078-2.127v-.862a1.9,1.9,0,0,1,2.129-2.127H628.8V468.5a1.922,1.922,0,0,1,2.127-2.128h2.026a1.923,1.923,0,0,1,2.128,2.128v5.268h3.748a1.922,1.922,0,0,1,2.128,2.127v.862a1.886,1.886,0,0,1-2.077,2.127h-3.8v10.03c0,3.85,2.381,4.61,4.154,4.812,1.57.152,2.127.658,2.127,2.077v1.57c0,1.521-.861,2.128-2.634,2.128-4.61,0-10.081-2.482-10.081-9.473Z" fill="#fff"/>
      <path id="Path_40" data-name="Path 40" d="M645.671,475.539a1.886,1.886,0,0,1,2.077-2.128h1.976a1.923,1.923,0,0,1,2.127,2.128v2.432a10.748,10.748,0,0,1-.152,1.772h.1c1.013-3.09,3.851-6.534,7.5-6.534,1.419,0,1.925.708,1.925,2.127v1.976a1.96,1.96,0,0,1-2.178,2.128c-4.711,0-6.991,4.659-6.991,9.37v8.308a1.865,1.865,0,0,1-2.076,2.128h-2.229a1.866,1.866,0,0,1-2.077-2.128Z" fill="#fff"/>
      <path id="Path_41" data-name="Path 41" d="M677.532,483.289H678.6v-.607c0-3.4-2.179-4.56-4.813-4.56a11.674,11.674,0,0,0-5.369,1.469c-1.267.557-2.229.355-2.837-.861l-.506-.962a1.888,1.888,0,0,1,.81-2.838,18.35,18.35,0,0,1,8.46-2.127c6.686,0,10.687,3.749,10.687,10.283v14.032a1.88,1.88,0,0,1-2.127,2.128H681.18a1.866,1.866,0,0,1-2.077-2.128v-1.013a5.076,5.076,0,0,1,.1-1.114h-.1A9.407,9.407,0,0,1,671,499.853c-4.71,0-8.561-3.039-8.561-7.75C662.437,484.555,671.758,483.289,677.532,483.289ZM672.72,494.94c3.6,0,5.927-3.647,5.927-6.787v-.963h-1.063c-3.242,0-8.764.507-8.764,4.356C668.82,493.268,670.137,494.94,672.72,494.94Z" fill="#fff"/>
      <path id="Path_42" data-name="Path 42" d="M692.119,478.882h-1.368a1.865,1.865,0,0,1-2.076-2.127v-.862a1.9,1.9,0,0,1,2.127-2.127h1.469V468.5a1.923,1.923,0,0,1,2.128-2.128h2.026a1.923,1.923,0,0,1,2.127,2.128v5.268H702.3a1.923,1.923,0,0,1,2.128,2.127v.862a1.886,1.886,0,0,1-2.077,2.127h-3.8v10.03c0,3.85,2.381,4.61,4.154,4.812,1.57.152,2.127.658,2.127,2.077v1.57c0,1.521-.86,2.128-2.633,2.128-4.61,0-10.081-2.482-10.081-9.473Z" fill="#fff"/>
      <path id="Path_43" data-name="Path 43" d="M720.486,472.8c7.346,0,11.449,5.218,11.449,12.309a2.239,2.239,0,0,1-2.229,2.179H713.952a7.423,7.423,0,0,0,7.75,7.091,10.677,10.677,0,0,0,5.572-1.671c1.266-.608,2.178-.456,2.837.71l.608,1.013a1.924,1.924,0,0,1-.71,2.836,16.324,16.324,0,0,1-8.763,2.583c-8.56,0-13.88-6.179-13.88-13.525C707.366,478.375,712.736,472.8,720.486,472.8Zm5.066,10.587c-.1-3.6-2.28-5.724-5.218-5.724-3.293,0-5.622,2.28-6.23,5.724Z" fill="#fff"/>
      <path id="Path_44" data-name="Path 44" d="M741.4,503.45a14.031,14.031,0,0,0,5.218.963c3.951,0,7.294-1.672,7.294-6.281v-1.925a10.91,10.91,0,0,1,.1-1.317h-.1a7.554,7.554,0,0,1-7.091,3.849c-7.548,0-11.7-5.977-11.7-13.12,0-7.041,3.951-12.816,11.651-12.816,6.028,0,7.649,3.952,7.649,3.952h.1a3.622,3.622,0,0,1-.052-.659v-.963c0-.962.709-1.722,2.078-1.722h1.722a1.887,1.887,0,0,1,2.077,2.128v22.137c0,8.864-6.991,12.208-13.374,12.208a20.737,20.737,0,0,1-7.547-1.368,1.817,1.817,0,0,1-1.114-2.736l.4-1.164A1.857,1.857,0,0,1,741.4,503.45Zm12.665-17.679c0-5.927-2.939-7.5-6.282-7.5-4,0-6.18,2.837-6.18,7.092,0,4.66,2.33,7.953,6.484,7.953C751.13,493.319,754.069,491.546,754.069,485.771Z" fill="#fff"/>
      <path id="Path_45" data-name="Path 45" d="M766.73,466.927v-1.52a1.886,1.886,0,0,1,2.076-2.127h2.229a1.923,1.923,0,0,1,2.128,2.127v1.52A1.886,1.886,0,0,1,771.035,469h-2.229A1.849,1.849,0,0,1,766.73,466.927Zm0,8.612a1.886,1.886,0,0,1,2.076-2.128h2.229a1.886,1.886,0,0,1,2.077,2.128v21.579a1.866,1.866,0,0,1-2.077,2.128h-2.229a1.865,1.865,0,0,1-2.076-2.128Z" fill="#fff"/>
      <path id="Path_46" data-name="Path 46" d="M791.044,472.8c7.346,0,11.448,5.218,11.448,12.309a2.238,2.238,0,0,1-2.228,2.179H784.51a7.423,7.423,0,0,0,7.75,7.091,10.677,10.677,0,0,0,5.572-1.671c1.266-.608,2.178-.456,2.837.71l.608,1.013a1.924,1.924,0,0,1-.71,2.836,16.324,16.324,0,0,1-8.763,2.583c-8.561,0-13.88-6.179-13.88-13.525C777.924,478.375,783.294,472.8,791.044,472.8Zm5.065,10.587c-.1-3.6-2.279-5.724-5.217-5.724-3.293,0-5.623,2.28-6.23,5.724Z" fill="#fff"/>
      <path id="Path_47" data-name="Path 47" d="M806.035,494.332l.609-.911c.759-1.065,1.62-1.166,2.886-.507a11.6,11.6,0,0,0,5.776,1.773c2.228,0,3.6-1.013,3.6-2.635,0-4.2-12.815-2.633-12.815-11.5,0-5.066,4.456-7.751,9.877-7.751a14.384,14.384,0,0,1,7.193,1.874,1.93,1.93,0,0,1,.76,2.838l-.507.912c-.607,1.215-1.57,1.367-2.836.81a11.506,11.506,0,0,0-4.914-1.266c-2.229,0-3.495.911-3.495,2.532,0,4.255,12.816,2.583,12.816,11.4,0,4.559-3.85,7.952-9.827,7.952a15.118,15.118,0,0,1-8.612-2.633C805.377,496.561,805.275,495.447,806.035,494.332Z" fill="#fff"/>
      <path id="Path_48" data-name="Path 48" d="M842.455,466.927v-1.52a1.886,1.886,0,0,1,2.076-2.127h2.229a1.923,1.923,0,0,1,2.128,2.127v1.52A1.886,1.886,0,0,1,846.76,469h-2.229A1.849,1.849,0,0,1,842.455,466.927Zm0,8.612a1.886,1.886,0,0,1,2.076-2.128h2.229a1.886,1.886,0,0,1,2.077,2.128v21.579a1.866,1.866,0,0,1-2.077,2.128h-2.229a1.865,1.865,0,0,1-2.076-2.128Z" fill="#fff"/>
      <path id="Path_49" data-name="Path 49" d="M855.22,475.539a1.886,1.886,0,0,1,2.076-2.128h1.976a1.886,1.886,0,0,1,2.077,2.128v1.57a8.285,8.285,0,0,1-.1,1.165h.1a10.077,10.077,0,0,1,9.169-5.471c5.724,0,9.016,2.989,9.016,9.827v14.488a1.881,1.881,0,0,1-2.127,2.128h-2.178a1.9,1.9,0,0,1-2.127-2.128v-13.17c0-3.141-.812-5.268-4.054-5.268-4.558,0-7.446,3.8-7.446,8.459v9.979a1.865,1.865,0,0,1-2.077,2.128H857.3a1.865,1.865,0,0,1-2.076-2.128Z" fill="#fff"/>
      <path id="Path_50" data-name="Path 50" d="M899.642,478.882h-1.367a1.865,1.865,0,0,1-2.077-2.127v-.862a1.9,1.9,0,0,1,2.127-2.127h1.469V468.5a1.923,1.923,0,0,1,2.128-2.128h2.026a1.923,1.923,0,0,1,2.128,2.128v5.268h3.748a1.923,1.923,0,0,1,2.128,2.127v.862a1.886,1.886,0,0,1-2.077,2.127h-3.8v10.03c0,3.85,2.381,4.61,4.154,4.812,1.57.152,2.127.658,2.127,2.077v1.57c0,1.521-.861,2.128-2.634,2.128-4.61,0-10.081-2.482-10.081-9.473Z" fill="#fff"/>
      <path id="Path_51" data-name="Path 51" d="M916.661,465.407a1.923,1.923,0,0,1,2.127-2.127h2.179a1.9,1.9,0,0,1,2.128,2.127v10.436a14.569,14.569,0,0,1-.153,2.178h.1a10.172,10.172,0,0,1,8.966-5.218c5.725,0,9.017,2.989,9.017,9.827v14.488a1.9,1.9,0,0,1-2.127,2.128H936.72a1.881,1.881,0,0,1-2.127-2.128v-13.17c0-3.141-.811-5.268-4.053-5.268-4.508,0-7.445,3.647-7.445,8.56v9.878a1.881,1.881,0,0,1-2.128,2.128h-2.179a1.9,1.9,0,0,1-2.127-2.128Z" fill="#fff"/>
      <path id="Path_52" data-name="Path 52" d="M958.552,472.8c7.345,0,11.448,5.218,11.448,12.309a2.239,2.239,0,0,1-2.229,2.179H952.017a7.424,7.424,0,0,0,7.751,7.091,10.673,10.673,0,0,0,5.571-1.671c1.267-.608,2.179-.456,2.838.71l.607,1.013a1.923,1.923,0,0,1-.709,2.836,16.325,16.325,0,0,1-8.764,2.583c-8.56,0-13.879-6.179-13.879-13.525C945.432,478.375,950.8,472.8,958.552,472.8Zm5.065,10.587c-.1-3.6-2.279-5.724-5.217-5.724-3.293,0-5.623,2.28-6.23,5.724Z" fill="#fff"/>
      <path id="Path_53" data-name="Path 53" d="M92.3,531.509a1.886,1.886,0,0,1,2.076-2.127h11.752c6.738,0,11.449,4.711,11.449,11.7s-4.711,11.853-11.449,11.853H98.785V563.22a1.866,1.866,0,0,1-2.077,2.128H94.377A1.865,1.865,0,0,1,92.3,563.22Zm12.612,15.754c3.851,0,6.029-2.431,6.029-6.179,0-3.7-2.178-6.08-5.927-6.08h-6.23v12.259Z" fill="#fff"/>
      <path id="Path_54" data-name="Path 54" d="M134.647,549.391h1.064v-.607c0-3.4-2.179-4.56-4.812-4.56a11.674,11.674,0,0,0-5.37,1.469c-1.267.557-2.229.355-2.837-.861l-.506-.962a1.888,1.888,0,0,1,.81-2.838,18.35,18.35,0,0,1,8.46-2.127c6.687,0,10.688,3.749,10.688,10.283V563.22a1.881,1.881,0,0,1-2.128,2.128h-1.722a1.866,1.866,0,0,1-2.077-2.128v-1.013a5.073,5.073,0,0,1,.1-1.114h-.1a9.407,9.407,0,0,1-8.1,4.862c-4.71,0-8.561-3.039-8.561-7.75C119.551,550.657,128.872,549.391,134.647,549.391Zm-4.813,11.651c3.6,0,5.927-3.647,5.927-6.787v-.963H134.7c-3.242,0-8.764.506-8.764,4.356C125.934,559.37,127.251,561.042,129.834,561.042Z" fill="#fff"/>
      <path id="Path_55" data-name="Path 55" d="M148.12,541.641a1.886,1.886,0,0,1,2.076-2.128h1.976a1.887,1.887,0,0,1,2.077,2.128v1.57a8.286,8.286,0,0,1-.1,1.165h.1a10.077,10.077,0,0,1,9.169-5.471c5.724,0,9.016,2.989,9.016,9.827V563.22a1.881,1.881,0,0,1-2.128,2.128h-2.177A1.9,1.9,0,0,1,166,563.22V550.05c0-3.141-.811-5.268-4.053-5.268-4.558,0-7.446,3.8-7.446,8.459v9.979a1.866,1.866,0,0,1-2.077,2.128H150.2a1.865,1.865,0,0,1-2.076-2.128Z" fill="#fff"/>
      <path id="Path_56" data-name="Path 56" d="M188.642,538.905c5.673,0,7.548,3.7,7.548,3.7h.1a10.908,10.908,0,0,1-.1-1.469v-9.625a1.886,1.886,0,0,1,2.076-2.127h2.229a1.886,1.886,0,0,1,2.077,2.127V563.22a1.866,1.866,0,0,1-2.077,2.128h-1.874c-1.368,0-2.077-.659-2.077-1.925v-1.014a4.149,4.149,0,0,1,.1-.911h-.1a8.964,8.964,0,0,1-8.105,4.457c-6.99,0-11.5-5.521-11.5-13.525C176.94,544.224,181.8,538.905,188.642,538.905Zm1.216,21.631c3.343,0,6.484-2.432,6.484-8.156,0-4-2.078-7.953-6.434-7.953-3.5,0-6.484,2.888-6.484,8C183.424,557.344,186.058,560.536,189.858,560.536Z" fill="#fff"/>
      <path id="Path_57" data-name="Path 57" d="M220.553,538.905c7.346,0,11.449,5.218,11.449,12.309a2.239,2.239,0,0,1-2.229,2.179H214.019a7.424,7.424,0,0,0,7.75,7.091,10.677,10.677,0,0,0,5.572-1.671c1.266-.608,2.178-.456,2.837.71l.608,1.013a1.924,1.924,0,0,1-.71,2.836,16.322,16.322,0,0,1-8.763,2.583c-8.56,0-13.879-6.179-13.879-13.525C207.434,544.477,212.8,538.905,220.553,538.905Zm5.066,10.587c-.1-3.6-2.28-5.724-5.217-5.724-3.293,0-5.623,2.28-6.231,5.724Z" fill="#fff"/>
      <path id="Path_58" data-name="Path 58" d="M236.659,541.641a1.887,1.887,0,0,1,2.077-2.128h1.976a1.886,1.886,0,0,1,2.076,2.128v1.57a8.286,8.286,0,0,1-.1,1.165h.1a9.939,9.939,0,0,1,8.46-5.471c3.9,0,6.484,1.824,7.548,5.319h.1a10.24,10.24,0,0,1,8.814-5.319c5.37,0,8.46,3.04,8.46,9.827V563.22a1.9,1.9,0,0,1-2.127,2.128h-2.179a1.881,1.881,0,0,1-2.128-2.128V549.948c0-2.938-.557-5.166-3.546-5.166-4.356,0-6.585,4.457-6.585,8.965v9.473a1.866,1.866,0,0,1-2.077,2.128H255.3a1.9,1.9,0,0,1-2.128-2.128V549.948c0-2.786-.406-5.166-3.445-5.166-4.559,0-6.687,4.66-6.687,8.965v9.473a1.865,1.865,0,0,1-2.076,2.128h-2.229a1.866,1.866,0,0,1-2.077-2.128Z" fill="#fff"/>
      <path id="Path_59" data-name="Path 59" d="M282.146,533.029v-1.52a1.886,1.886,0,0,1,2.077-2.127h2.228a1.923,1.923,0,0,1,2.129,2.127v1.52a1.887,1.887,0,0,1-2.129,2.077h-2.228A1.849,1.849,0,0,1,282.146,533.029Zm0,8.612a1.886,1.886,0,0,1,2.077-2.128h2.228a1.886,1.886,0,0,1,2.077,2.128V563.22a1.865,1.865,0,0,1-2.077,2.128h-2.228a1.866,1.866,0,0,1-2.077-2.128Z" fill="#fff"/>
      <path id="Path_60" data-name="Path 60" d="M307.321,538.905a14.45,14.45,0,0,1,8.459,2.583c1.064.71,1.115,1.773.4,2.888l-.659,1.013c-.759,1.166-1.62,1.166-2.836.557a9.031,9.031,0,0,0-5.015-1.57,7.676,7.676,0,0,0-7.851,8,7.834,7.834,0,0,0,8.054,8.1,10.112,10.112,0,0,0,5.775-1.974c1.266-.71,2.229-.558,2.887.657l.507.963a1.982,1.982,0,0,1-.558,2.836,15.341,15.341,0,0,1-9.168,2.989c-8.561,0-14.032-6.028-14.032-13.525C293.289,545.086,298.76,538.905,307.321,538.905Z" fill="#fff"/>
      <path id="Path_61" data-name="Path 61" d="M335.382,531.509a1.886,1.886,0,0,1,2.077-2.127h17.323a1.922,1.922,0,0,1,2.128,2.127v1.419A1.886,1.886,0,0,1,354.782,535H341.866v9.423H351.9a1.886,1.886,0,0,1,2.127,2.076v1.419a1.9,1.9,0,0,1-2.127,2.128h-10.03v9.674h13.728a1.887,1.887,0,0,1,2.127,2.078v1.418a1.9,1.9,0,0,1-2.127,2.128H337.459a1.865,1.865,0,0,1-2.077-2.128Z" fill="#fff"/>
      <path id="Path_62" data-name="Path 62" d="M362.329,541.641a1.886,1.886,0,0,1,2.076-2.128h1.976a1.923,1.923,0,0,1,2.128,2.128v2.432a10.75,10.75,0,0,1-.152,1.772h.1c1.013-3.09,3.85-6.534,7.5-6.534,1.418,0,1.925.708,1.925,2.127v1.976a1.961,1.961,0,0,1-2.179,2.128c-4.71,0-6.99,4.659-6.99,9.37v8.308a1.865,1.865,0,0,1-2.077,2.128H364.4a1.865,1.865,0,0,1-2.076-2.128Z" fill="#fff"/>
      <path id="Path_63" data-name="Path 63" d="M394.19,549.391h1.064v-.607c0-3.4-2.178-4.56-4.813-4.56a11.677,11.677,0,0,0-5.369,1.469c-1.266.557-2.229.355-2.837-.861l-.507-.962a1.89,1.89,0,0,1,.812-2.838A18.342,18.342,0,0,1,391,538.905c6.686,0,10.688,3.749,10.688,10.283V563.22a1.881,1.881,0,0,1-2.127,2.128h-1.723a1.865,1.865,0,0,1-2.076-2.128v-1.013a5.072,5.072,0,0,1,.1-1.114h-.1a9.409,9.409,0,0,1-8.106,4.862c-4.711,0-8.56-3.039-8.56-7.75C379.1,550.657,388.415,549.391,394.19,549.391Zm-4.812,11.651c3.6,0,5.927-3.647,5.927-6.787v-.963h-1.064c-3.242,0-8.764.506-8.764,4.356C385.477,559.37,386.8,561.042,389.378,561.042Z" fill="#fff"/>
    </g>
    <g id="Group_7" data-name="Group 7">
      <g id="Title-2" data-name="Title">
        <g id="Group_6" data-name="Group 6">
          <path id="Path_64" data-name="Path 64" d="M99.024,224.628c0-2.556,1.325-3.976,3.881-3.976h4.354c2.556,0,3.881,1.42,3.881,3.976v23.38h8.8l14.2-24.611a4.8,4.8,0,0,1,4.639-2.745h4.638c3.123,0,4.259,2.082,2.745,4.733l-16.282,27.261v.19l17.512,30.29c1.61,2.746.379,4.733-2.745,4.733h-5.206a4.8,4.8,0,0,1-4.639-2.745l-14.861-26.6h-8.8v25.368c0,2.651-1.325,3.976-3.881,3.976H102.9c-2.556,0-3.881-1.325-3.881-3.976Z" fill="#fff"/>
          <path id="Path_65" data-name="Path 65" d="M176.83,238.447c13.726,0,21.393,9.75,21.393,23a4.183,4.183,0,0,1-4.164,4.071H164.62c.756,8.708,7.194,13.252,14.482,13.252a19.957,19.957,0,0,0,10.413-3.124c2.366-1.136,4.07-.852,5.3,1.325l1.136,1.894c1.137,2.177.757,4.07-1.325,5.3a30.511,30.511,0,0,1-16.376,4.828c-16,0-25.936-11.548-25.936-25.274C152.314,248.86,162.347,238.447,176.83,238.447Zm9.466,19.784c-.189-6.721-4.259-10.7-9.75-10.7-6.152,0-10.506,4.259-11.642,10.7Z" fill="#fff"/>
          <path id="Path_66" data-name="Path 66" d="M228.511,238.447c13.726,0,21.393,9.75,21.393,23a4.183,4.183,0,0,1-4.164,4.071H216.3c.756,8.708,7.194,13.252,14.482,13.252a19.957,19.957,0,0,0,10.413-3.124c2.366-1.136,4.07-.852,5.3,1.325l1.136,1.894c1.137,2.177.758,4.07-1.324,5.3a30.518,30.518,0,0,1-16.377,4.828c-16,0-25.936-11.548-25.936-25.274C203.995,248.86,214.028,238.447,228.511,238.447Zm9.466,19.784c-.189-6.721-4.259-10.7-9.749-10.7-6.153,0-10.507,4.259-11.643,10.7Z" fill="#fff"/>
          <path id="Path_67" data-name="Path 67" d="M258.611,243.559c0-2.556,1.42-3.976,3.975-3.976h3.029c2.556,0,3.881,1.42,3.881,3.313v2.178c0,1.041-.094,1.893-.094,1.893h.189s4.259-8.52,15.524-8.52c13.062,0,21.487,10.318,21.487,25.274,0,15.335-9.465,25.274-22.15,25.274-10.034,0-13.915-7.383-13.915-7.383h-.189a27.994,27.994,0,0,1,.284,4.165v17.038q0,3.977-3.975,3.976h-4.071c-2.555,0-3.975-1.325-3.975-3.976Zm23.664,35.308c6.626,0,12.117-5.4,12.117-14.956,0-9.182-4.923-15.146-11.928-15.146-6.247,0-12.211,4.544-12.211,15.24C270.253,271.483,274.418,278.867,282.275,278.867Z" fill="#fff"/>
          <path id="Path_68" data-name="Path 68" d="M315.688,227.467v-2.839c0-2.556,1.324-3.976,3.881-3.976h4.164c2.556,0,3.976,1.42,3.976,3.976v2.839c0,2.556-1.42,3.881-3.976,3.881h-4.164C317.012,231.348,315.688,230.023,315.688,227.467Zm0,16.092c0-2.556,1.324-3.976,3.881-3.976h4.164c2.556,0,3.881,1.42,3.881,3.976v40.324c0,2.651-1.325,3.976-3.881,3.976h-4.164c-2.557,0-3.881-1.325-3.881-3.976Z" fill="#fff"/>
          <path id="Path_69" data-name="Path 69" d="M339.541,243.559c0-2.556,1.325-3.976,3.881-3.976h3.691c2.556,0,3.881,1.42,3.881,3.976v2.935a15.437,15.437,0,0,1-.189,2.176h.189a18.831,18.831,0,0,1,17.133-10.223c10.7,0,16.85,5.586,16.85,18.364v27.072q0,3.977-3.976,3.976H376.93c-2.555,0-3.975-1.325-3.975-3.976V259.272c0-5.868-1.515-9.844-7.573-9.844-8.518,0-13.914,7.1-13.914,15.808v18.647c0,2.651-1.326,3.976-3.881,3.976h-4.165c-2.556,0-3.881-1.325-3.881-3.976Z" fill="#fff"/>
          <path id="Path_70" data-name="Path 70" d="M405.232,295.716a26.222,26.222,0,0,0,9.75,1.8c7.383,0,13.63-3.124,13.63-11.737v-3.6a20.5,20.5,0,0,1,.19-2.461h-.19c-2.65,4.543-6.815,7.194-13.252,7.194-14.1,0-21.865-11.17-21.865-24.517,0-13.158,7.382-23.949,21.771-23.949,11.264,0,14.293,7.384,14.293,7.384h.189a6.978,6.978,0,0,1-.094-1.231v-1.8c0-1.8,1.325-3.219,3.881-3.219h3.218c2.556,0,3.881,1.42,3.881,3.976v41.366c0,16.565-13.063,22.812-24.99,22.812a38.743,38.743,0,0,1-14.1-2.555c-2.461-1.042-3.123-2.651-2.083-5.112l.758-2.177C401.256,295.527,402.676,294.864,405.232,295.716ZM428.9,262.68c0-11.075-5.49-14.01-11.737-14.01-7.479,0-11.548,5.3-11.548,13.253,0,8.708,4.354,14.861,12.116,14.861C423.406,276.784,428.9,273.471,428.9,262.68Z" fill="#fff"/>
          <path id="Path_71" data-name="Path 71" d="M472.342,244.133c0-2.555,1.421-3.975,3.976-3.975h4.071c2.65,0,3.975,1.42,3.975,3.975v24.611c0,5.87,1.515,9.845,7.478,9.845,8.709,0,13.536-7.668,13.536-16.281V244.133c0-2.555,1.325-3.975,3.976-3.975h4.071c2.555,0,3.975,1.42,3.975,3.975v40.325c0,2.65-1.42,3.976-3.975,3.976h-3.693c-2.555,0-3.881-1.326-3.881-3.976v-2.84a13.712,13.712,0,0,1,.19-2.177h-.19c-2.271,4.922-8.519,10.128-16.754,10.128-10.318,0-16.755-5.206-16.755-18.364Z" fill="#fff"/>
          <path id="Path_72" data-name="Path 72" d="M529.23,244.133c0-2.555,1.42-3.975,3.976-3.975h3.029c2.555,0,3.881,1.42,3.881,3.313v2.177c0,1.041-.1,1.894-.1,1.894h.19s4.259-8.52,15.523-8.52c13.063,0,21.488,10.318,21.488,25.273,0,15.335-9.466,25.274-22.15,25.274-10.034,0-13.915-7.383-13.915-7.383h-.19a27.994,27.994,0,0,1,.284,4.165v17.038q0,3.977-3.975,3.976h-4.07c-2.556,0-3.976-1.325-3.976-3.976ZM552.9,279.441c6.626,0,12.116-5.4,12.116-14.956,0-9.182-4.922-15.145-11.927-15.145-6.247,0-12.211,4.544-12.211,15.239C540.873,272.058,545.038,279.441,552.9,279.441Z" fill="#fff"/>
          <path id="Path_73" data-name="Path 73" d="M607.32,225.581c-.662-2.651.568-4.355,3.408-4.355h4.733c2.272,0,3.692,1.136,4.26,3.5L629.47,267.7a48.758,48.758,0,0,1,1.041,7.1h.19a55.559,55.559,0,0,1,1.42-7.1l11.17-43.07a4.218,4.218,0,0,1,4.449-3.408h3.218a3.909,3.909,0,0,1,4.259,3.408l11.075,43.07a55.559,55.559,0,0,1,1.42,7.1h.19a59.45,59.45,0,0,1,1.135-7.1l10.319-42.975a3.947,3.947,0,0,1,4.353-3.5h4.45c2.839,0,4.165,1.7,3.5,4.355l-15.43,59.54a4.144,4.144,0,0,1-4.449,3.313h-6.72a4.06,4.06,0,0,1-4.354-3.408l-9.561-36.349c-1.136-4.354-1.8-8.8-1.8-8.8h-.284s-.663,4.449-1.705,8.8l-9.655,36.349a4.059,4.059,0,0,1-4.353,3.408h-6.816a4.06,4.06,0,0,1-4.354-3.408Z" fill="#fff"/>
          <path id="Path_74" data-name="Path 74" d="M700.178,228.042V225.2c0-2.556,1.325-3.976,3.881-3.976h4.165c2.555,0,3.975,1.42,3.975,3.976v2.84c0,2.555-1.42,3.881-3.975,3.881h-4.165C701.5,231.923,700.178,230.6,700.178,228.042Zm0,16.091c0-2.555,1.325-3.975,3.881-3.975h4.165c2.555,0,3.881,1.42,3.881,3.975v40.325c0,2.65-1.326,3.976-3.881,3.976h-4.165c-2.556,0-3.881-1.326-3.881-3.976Z" fill="#fff"/>
          <path id="Path_75" data-name="Path 75" d="M726.681,250.381h-2.555c-2.556,0-3.881-1.325-3.881-3.976V244.8c0-2.556,1.325-3.976,3.975-3.976h2.745v-9.844c0-2.556,1.42-3.976,3.976-3.976h3.787c2.555,0,3.975,1.42,3.975,3.976v9.844h7.005c2.556,0,3.976,1.42,3.976,3.976V246.4c0,2.651-1.42,3.976-3.881,3.976h-7.1v18.742c0,7.194,4.449,8.614,7.762,8.993,2.935.284,3.976,1.23,3.976,3.881v2.934c0,2.84-1.609,3.976-4.922,3.976-8.615,0-18.838-4.638-18.838-17.7Z" fill="#fff"/>
          <path id="Path_76" data-name="Path 76" d="M758.486,225.2c0-2.556,1.42-3.976,3.975-3.976h4.071c2.651,0,3.975,1.42,3.975,3.976v19.5a27.4,27.4,0,0,1-.284,4.071h.19a19,19,0,0,1,16.754-9.75c10.7,0,16.849,5.585,16.849,18.363v27.073c0,2.65-1.419,3.976-3.975,3.976h-4.07q-3.977,0-3.977-3.976V259.847c0-5.869-1.514-9.845-7.572-9.845-8.425,0-13.915,6.816-13.915,16v18.458q0,3.975-3.975,3.976h-4.071c-2.555,0-3.975-1.326-3.975-3.976Z" fill="#fff"/>
          <path id="Path_77" data-name="Path 77" d="M841.5,250.381h-2.555c-2.556,0-3.881-1.325-3.881-3.976V244.8c0-2.556,1.325-3.976,3.975-3.976h2.745v-9.844c0-2.556,1.42-3.976,3.976-3.976h3.787c2.555,0,3.975,1.42,3.975,3.976v9.844h7.005c2.556,0,3.976,1.42,3.976,3.976V246.4c0,2.651-1.42,3.976-3.881,3.976h-7.1v18.742c0,7.194,4.449,8.614,7.762,8.993,2.935.284,3.976,1.23,3.976,3.881v2.934c0,2.84-1.609,3.976-4.922,3.976-8.615,0-18.838-4.638-18.838-17.7Z" fill="#fff"/>
          <path id="Path_78" data-name="Path 78" d="M873.3,225.2c0-2.556,1.42-3.976,3.975-3.976h4.071c2.651,0,3.975,1.42,3.975,3.976v19.5a27.4,27.4,0,0,1-.284,4.071h.19a19,19,0,0,1,16.754-9.75c10.7,0,16.849,5.585,16.849,18.363v27.073c0,2.65-1.419,3.976-3.975,3.976h-4.07q-3.977,0-3.977-3.976V259.847c0-5.869-1.514-9.845-7.572-9.845-8.425,0-13.915,6.816-13.915,16v18.458q0,3.975-3.975,3.976h-4.071c-2.555,0-3.975-1.326-3.975-3.976Z" fill="#fff"/>
          <path id="Path_79" data-name="Path 79" d="M951.583,239.022c13.726,0,21.393,9.75,21.393,23a4.182,4.182,0,0,1-4.164,4.07H939.373c.756,8.708,7.194,13.252,14.482,13.252a19.957,19.957,0,0,0,10.413-3.123c2.366-1.136,4.07-.852,5.3,1.324l1.136,1.894c1.137,2.177.757,4.07-1.325,5.3A30.512,30.512,0,0,1,953,289.569c-16,0-25.936-11.548-25.936-25.274C927.067,249.434,937.1,239.022,951.583,239.022Zm9.466,19.783c-.189-6.72-4.259-10.695-9.75-10.695-6.152,0-10.506,4.259-11.642,10.695Z" fill="#fff"/>
          <path id="Path_80" data-name="Path 80" d="M98.878,336.357c0-2.556,1.326-3.975,3.882-3.975h5.111a4.775,4.775,0,0,1,4.733,2.65l23.854,36.16a113.536,113.536,0,0,1,5.585,10.412h.189s-.663-6.437-.663-10.412V336.357c0-2.556,1.421-3.975,3.976-3.975H149.8c2.557,0,3.977,1.419,3.977,3.975v59.257c0,2.65-1.42,3.975-3.977,3.975h-5.111a4.807,4.807,0,0,1-4.638-2.651l-23.949-36.065c-2.461-3.975-5.584-10.411-5.584-10.411h-.19S111,356.9,111,360.873v34.741c0,2.65-1.325,3.975-3.881,3.975H102.76c-2.556,0-3.882-1.325-3.882-3.975Z" fill="#fff"/>
          <path id="Path_81" data-name="Path 81" d="M188.14,350.178c13.726,0,21.393,9.749,21.393,23a4.184,4.184,0,0,1-4.165,4.071H175.929c.757,8.708,7.194,13.252,14.483,13.252a19.953,19.953,0,0,0,10.412-3.124c2.367-1.135,4.071-.851,5.3,1.325l1.136,1.893c1.136,2.177.757,4.071-1.325,5.3a30.52,30.52,0,0,1-16.376,4.827c-16,0-25.937-11.549-25.937-25.274C163.623,360.589,173.657,350.178,188.14,350.178Zm9.465,19.783c-.188-6.721-4.259-10.7-9.749-10.7-6.152,0-10.507,4.259-11.643,10.7Z" fill="#fff"/>
          <path id="Path_82" data-name="Path 82" d="M214.358,355.762c-.757-2.65.568-4.448,3.313-4.448h4.544a3.914,3.914,0,0,1,4.26,3.5l7.761,28.209c.568,2.555.947,5.111.947,5.111h.189s.379-2.556,1.042-5.111l8.14-28.209a4,4,0,0,1,4.354-3.407h3.6a4.061,4.061,0,0,1,4.355,3.407l8.045,28.209a33.408,33.408,0,0,1,1.042,5.111h.189s.379-2.556,1.041-5.111l7.667-28.209a4.06,4.06,0,0,1,4.355-3.5h4.354c2.84,0,4.071,1.8,3.313,4.448l-12.4,40.514a4.207,4.207,0,0,1-4.449,3.313h-6.342a4.156,4.156,0,0,1-4.449-3.407l-7.289-24.139a41.815,41.815,0,0,1-1.136-5.206h-.189s-.473,2.651-1.23,5.206l-7.289,24.139a4.061,4.061,0,0,1-4.355,3.407h-6.531a4.107,4.107,0,0,1-4.354-3.313Z" fill="#fff"/>
          <path id="Path_83" data-name="Path 83" d="M320.372,336.357c0-2.556,1.325-3.975,3.881-3.975h5.112a4.776,4.776,0,0,1,4.733,2.65l23.854,36.16a113.7,113.7,0,0,1,5.584,10.412h.19s-.663-6.437-.663-10.412V336.357c0-2.556,1.42-3.975,3.976-3.975H371.3c2.556,0,3.976,1.419,3.976,3.975v59.257c0,2.65-1.42,3.975-3.976,3.975h-5.111a4.805,4.805,0,0,1-4.638-2.651L337.6,360.873c-2.461-3.975-5.585-10.411-5.585-10.411h-.189s.662,6.436.662,10.411v34.741c0,2.65-1.325,3.975-3.881,3.975h-4.354c-2.556,0-3.881-1.325-3.881-3.975Z" fill="#fff"/>
          <path id="Path_84" data-name="Path 84" d="M446.928,355.289c0-2.556,1.324-3.975,3.881-3.975H454.5c2.556,0,3.976,1.419,3.976,3.975v4.544a20.119,20.119,0,0,1-.284,3.313h.189c1.893-5.774,7.194-12.212,14.01-12.212,2.65,0,3.6,1.326,3.6,3.977V358.6c0,2.555-1.514,3.976-4.07,3.976-8.8,0-13.062,8.708-13.062,17.511v15.525c0,2.65-1.326,3.975-3.881,3.975h-4.165c-2.557,0-3.881-1.325-3.881-3.975Z" fill="#fff"/>
          <path id="Path_85" data-name="Path 85" d="M482.424,355.289c0-2.556,1.324-3.975,3.881-3.975H490c2.556,0,3.881,1.419,3.881,3.975v2.935a15.458,15.458,0,0,1-.189,2.177h.189c2.367-4.734,8.235-10.223,15.808-10.223,7.289,0,12.117,3.407,14.1,9.939h.19a19.13,19.13,0,0,1,16.47-9.939c10.034,0,15.808,5.679,15.808,18.363v27.073c0,2.65-1.42,3.975-3.976,3.975h-4.07q-3.975,0-3.976-3.975v-24.8c0-5.49-1.041-9.656-6.626-9.656-8.14,0-12.306,8.331-12.306,16.755v17.7c0,2.65-1.324,3.975-3.88,3.975h-4.165c-2.556,0-3.976-1.325-3.976-3.975v-24.8c0-5.206-.757-9.656-6.437-9.656-8.519,0-12.494,8.709-12.494,16.755v17.7c0,2.65-1.326,3.975-3.881,3.975H486.3c-2.557,0-3.881-1.325-3.881-3.975Z" fill="#fff"/>
          <path id="Path_86" data-name="Path 86" d="M591.94,369.772h1.988v-1.136c0-6.342-4.071-8.519-8.993-8.519a21.792,21.792,0,0,0-10.033,2.745c-2.367,1.04-4.165.662-5.3-1.609l-.947-1.8c-1.136-2.178-.758-4.071,1.515-5.3a34.263,34.263,0,0,1,15.807-3.975c12.495,0,19.974,7,19.974,19.215v26.221q0,3.975-3.976,3.975h-3.219c-2.556,0-3.881-1.325-3.881-3.975V393.72a9.423,9.423,0,0,1,.19-2.082h-.19s-4.543,9.087-15.145,9.087c-8.8,0-16-5.679-16-14.482C563.732,372.138,581.149,369.772,591.94,369.772Zm-8.993,21.771c6.721,0,11.075-6.815,11.075-12.684v-1.8h-1.987c-6.059,0-16.376.947-16.376,8.141C575.659,388.419,578.119,391.543,582.947,391.543Z" fill="#fff"/>
          <path id="Path_87" data-name="Path 87" d="M617.022,336.357c0-2.556,1.325-3.975,3.881-3.975h4.166c2.555,0,3.881,1.419,3.881,3.975v47.235c0,4.733,1.987,5.584,3.785,5.774a3.082,3.082,0,0,1,2.935,3.407v3.219c0,2.461-1.136,4.071-3.975,4.071-6.438,0-14.673-1.7-14.673-15.525Z" fill="#fff"/>
          <path id="Path_88" data-name="Path 88" d="M411.953,351.127c14.367,0,26.047,10.289,26.047,24.748,0,14.553-11.68,24.749-26.047,24.749S386,390.428,386,375.875C386,361.416,397.586,351.127,411.953,351.127Zm0,39.487c7.693,0,14.089-5.933,14.089-14.739,0-8.712-6.4-14.737-14.089-14.737s-14,6.025-14,14.737C397.957,384.681,404.26,390.614,411.953,390.614Z" fill="#fff"/>
        </g>
      </g>
    </g>
  </g>
</svg>
